<svg width="80" height="80" viewBox="0 0 80 80" fill="none" xmlns="http://www.w3.org/2000/svg">
<g id="003-atom" clip-path="url(#clip0_230_4355)">
<path id="Vector" d="M27.0677 47.9286C26.8145 47.9286 26.5598 47.8528 26.3396 47.694C25.7781 47.2913 25.65 46.5103 26.0527 45.9495L35.5735 32.698L31.5123 29.7819L21.7505 43.3703C21.3471 43.9318 20.5639 44.0598 20.006 43.6571C19.4445 43.2544 19.3165 42.4734 19.7191 41.9126L30.2105 27.3085C30.6125 26.747 31.3964 26.619 31.955 27.0217L38.0461 31.3969C38.3158 31.5907 38.4982 31.8826 38.5518 32.2094C38.604 32.537 38.5261 32.8725 38.333 33.1407L28.0841 47.4072C27.8402 47.7477 27.4568 47.9286 27.0677 47.9286Z" fill="#E99531"/>
<path id="Vector_2" d="M16.2499 73.8917C7.28989 73.8917 0 66.6018 0 57.6418C0 48.6818 7.28989 41.3919 16.2499 41.3919C24.0097 41.3919 30.7181 46.9115 32.1994 54.5168C32.3317 55.1942 31.8897 55.8508 31.2123 55.9824C30.535 56.114 29.8777 55.6727 29.7461 54.9953C28.4922 48.5609 22.8159 43.8917 16.2499 43.8917C8.66818 43.8917 2.49982 50.0601 2.49982 57.6418C2.49982 65.2235 8.66818 71.3918 16.2499 71.3918C21.9212 71.3918 26.9394 67.9858 29.0344 62.7144C29.2904 62.0728 30.0171 61.7609 30.658 62.0141C31.3003 62.2688 31.6122 62.9969 31.3582 63.6378C28.8835 69.8669 22.9526 73.8917 16.2499 73.8917Z" fill="#E99531"/>
<path id="Vector_3" d="M39.9999 38.8914C38.1381 38.8914 36.3149 38.5788 34.5768 37.9637C33.9259 37.7334 33.5855 37.0188 33.8158 36.3687C34.044 35.7178 34.7599 35.3773 35.4115 35.6076C36.88 36.1276 38.4242 36.3915 39.9999 36.3915C47.5816 36.3915 53.75 30.2232 53.75 22.6415C53.75 15.0598 47.5816 8.89139 39.9999 8.89139C32.4182 8.89139 26.2498 15.0598 26.2498 22.6415C26.2498 25.5418 27.141 28.3142 28.8283 30.6588C29.2324 31.2195 29.1037 32.0006 28.5436 32.4033C27.9836 32.806 27.2033 32.6794 26.7991 32.1193C24.8043 29.347 23.75 26.0697 23.75 22.6415C23.75 13.6815 31.0399 6.39157 39.9999 6.39157C48.9599 6.39157 56.2498 13.6815 56.2498 22.6415C56.2498 31.6015 48.9599 38.8914 39.9999 38.8914Z" fill="#E99531"/>
<path id="Vector_4" d="M30.0003 23.8917C29.3093 23.8917 28.75 23.3324 28.75 22.6414C28.75 16.438 33.7968 11.3919 40.0003 11.3919C40.6912 11.3919 41.2505 11.9505 41.2505 12.6415C41.2505 13.3324 40.6912 13.8917 40.0003 13.8917C35.1759 13.8917 31.2505 17.817 31.2505 22.6414C31.2505 23.3324 30.6912 23.8917 30.0003 23.8917Z" fill="#E99531"/>
<path id="Vector_5" d="M63.7499 73.8917C54.7899 73.8917 47.5 66.6018 47.5 57.6418C47.5 53.9389 48.7782 50.3161 51.0999 47.4401C51.5305 46.9029 52.3208 46.8178 52.858 47.252C53.3951 47.6854 53.4788 48.4722 53.0461 49.0101C51.0813 51.4441 49.9998 54.5097 49.9998 57.6418C49.9998 65.2235 56.1682 71.3918 63.7499 71.3918C71.3316 71.3918 77.5 65.2235 77.5 57.6418C77.5 50.0601 71.3316 43.8917 63.7499 43.8917C62.4496 43.8917 61.1657 44.0719 59.9311 44.4289C59.2674 44.6191 58.575 44.2386 58.3833 43.5741C58.1924 42.9118 58.575 42.218 59.2381 42.0263C60.6965 41.605 62.2157 41.3919 63.7499 41.3919C72.7099 41.3919 79.9998 48.6818 79.9998 57.6418C79.9998 66.6018 72.7099 73.8917 63.7499 73.8917Z" fill="#E99531"/>
<path id="Vector_6" d="M57.477 55.996C57.0879 55.996 56.7046 55.815 56.4607 55.4745L43.6368 37.6253C43.4051 37.302 43.34 36.8872 43.4645 36.5088C43.5882 36.129 43.8858 35.8322 44.2641 35.7085C46.4592 34.9925 48.4641 33.7079 50.0591 31.9913C50.3138 31.7173 50.6671 31.5829 51.054 31.5943C51.4274 31.6172 51.7722 31.8082 51.9903 32.1129L64.5831 49.6424C64.7762 49.9106 64.8542 50.2467 64.8013 50.5736C64.7476 50.9005 64.5659 51.1923 64.2963 51.3869L58.2052 55.7614C57.9849 55.9202 57.7295 55.996 57.477 55.996ZM46.6102 37.4794L57.7617 53.0019L61.8229 50.0851L50.8087 34.7536C49.5534 35.8751 48.1337 36.7971 46.6102 37.4794Z" fill="#E99531"/>
<path id="Vector_7" d="M49.6218 63.8917H23.7503C23.0593 63.8917 22.5 63.3324 22.5 62.6414V55.1412C22.5 54.4503 23.0593 53.8917 23.7503 53.8917H48.9752C49.3421 53.8917 49.6912 54.0541 49.9293 54.3337C50.1668 54.6141 50.2691 54.9853 50.2083 55.348C50.0688 56.1805 50.0009 56.9308 50.0009 57.6418C50.0009 59.1824 50.2691 60.7252 50.8005 62.2244C50.9357 62.6078 50.8771 63.0319 50.6425 63.3631C50.4078 63.695 50.0273 63.8917 49.6218 63.8917ZM25.0005 61.3919H47.9481C47.6505 60.1538 47.5003 58.8985 47.5003 57.6418C47.5003 57.2348 47.5189 56.82 47.5554 56.3915H25.0005V61.3919Z" fill="#E99531"/>
</g>
<defs>
<clipPath id="clip0_230_4355">
<rect width="80" height="80" fill="white"/>
</clipPath>
</defs>
</svg>
