<svg width="80" height="80" viewBox="0 0 80 80" fill="none" xmlns="http://www.w3.org/2000/svg">
<g id="037-currency" clip-path="url(#clip0_230_4388)">
<path id="Vector" d="M38.71 56.581C38.6732 56.581 38.6349 56.5796 38.5966 56.576C36.1918 56.3615 33.9156 55.6374 31.8327 54.4238C31.2299 54.0723 31.0263 53.2998 31.3765 52.6984C31.7266 52.0963 32.4998 51.8941 33.1019 52.2428C34.8635 53.2694 36.7882 53.8817 38.8212 54.0629C39.515 54.1242 40.0275 54.7379 39.9662 55.4317C39.9063 56.0872 39.3569 56.581 38.71 56.581ZM42.6525 56.4236C42.049 56.4236 41.5155 55.9897 41.4108 55.3746C41.2924 54.6888 41.753 54.0369 42.441 53.9185C44.4487 53.5734 46.3171 52.806 47.9928 51.6393C48.5645 51.2422 49.3507 51.3816 49.7485 51.9533C50.1463 52.5251 50.0055 53.3113 49.4345 53.7091C47.4527 55.0902 45.2436 55.997 42.8669 56.4049C42.7955 56.4171 42.7226 56.4236 42.6525 56.4236ZM29.3399 52.1786C29.0157 52.1786 28.6916 52.0544 28.4454 51.8068C26.7647 50.1174 25.45 48.0447 24.6436 45.8146C24.4075 45.1591 24.7461 44.4364 25.4017 44.1996C26.0593 43.9592 26.7813 44.3029 27.0166 44.957C27.6982 46.8434 28.8107 48.597 30.2336 50.0272C30.7253 50.521 30.7231 51.3202 30.2286 51.8111C29.9838 52.0573 29.6611 52.1786 29.3399 52.1786ZM51.635 51.2769C51.3476 51.2769 51.0581 51.1794 50.8213 50.9787C50.2893 50.5289 50.2228 49.7319 50.6726 49.2006C51.975 47.6607 52.9417 45.8233 53.468 43.8878C53.6514 43.2164 54.3466 42.8171 55.0166 43.0019C55.688 43.1839 56.0865 43.8777 55.9024 44.5505C55.2801 46.8398 54.138 49.0107 52.5995 50.8293C52.3497 51.1253 51.9931 51.2769 51.635 51.2769ZM24.9851 42.7904C24.3346 42.7904 23.7831 42.2901 23.7289 41.631C23.6914 41.1711 23.6719 40.709 23.6719 40.2412C23.6719 38.3028 24.0069 36.4055 24.666 34.6014C24.9064 33.9473 25.6334 33.6145 26.2853 33.8498C26.9394 34.0903 27.2758 34.8151 27.0369 35.4692C26.4788 36.9946 26.1951 38.5995 26.1951 40.2412C26.1951 40.6405 26.2124 41.0361 26.2442 41.4267C26.2998 42.1212 25.7836 42.7298 25.0883 42.7868C25.0544 42.789 25.0197 42.7904 24.9851 42.7904ZM55.2129 41.5335C54.517 41.5335 53.951 41.0007 53.951 40.304C53.951 40.2795 53.9539 40.1921 53.9546 40.1669C53.9524 38.1916 53.5164 36.2193 52.6565 34.3776C52.362 33.7466 52.6341 32.9958 53.2666 32.7005C53.8983 32.406 54.6491 32.6781 54.9429 33.3106C55.9594 35.4872 56.4756 37.8198 56.4756 40.2412C56.4756 40.9386 55.9103 41.5335 55.2129 41.5335ZM27.6823 32.7987C27.431 32.7987 27.1784 32.7236 26.9567 32.5684C26.3871 32.167 26.2507 31.3808 26.6521 30.8105C28.0223 28.8663 29.8337 27.2101 31.8891 26.0247C32.489 25.6767 33.2622 25.8832 33.6123 26.4867C33.961 27.091 33.7546 27.862 33.1503 28.2107C31.4097 29.215 29.8755 30.617 28.7154 32.2645C28.4699 32.6132 28.0793 32.7987 27.6823 32.7987ZM51.6776 31.7764C51.3166 31.7764 50.96 31.6234 50.7094 31.3252C49.415 29.781 47.7682 28.5161 45.9497 27.6657C45.3187 27.3697 45.0465 26.6196 45.3411 25.9879C45.6371 25.3569 46.3835 25.0869 47.0189 25.3793C49.1681 26.3842 51.113 27.8801 52.6435 29.7037C53.0911 30.2372 53.0204 31.0328 52.4876 31.4819C52.2508 31.679 51.9635 31.7764 51.6776 31.7764ZM36.1702 26.8701C35.6136 26.8701 35.1032 26.4976 34.9523 25.9337C34.7732 25.2594 35.1739 24.5685 35.8468 24.3888C37.2177 24.0242 38.6392 23.8394 40.0737 23.8394H40.0961C41.0448 23.8394 42.0006 23.9231 42.9348 24.0877C43.6214 24.209 44.0791 24.8631 43.9571 25.5489C43.8365 26.2355 43.1796 26.6961 42.4959 26.5719C41.7061 26.4326 40.8982 26.3626 40.0947 26.3626C40.0882 26.3626 40.0824 26.3626 40.0752 26.3626C38.8594 26.3626 37.6552 26.5185 36.4972 26.8282C36.3868 26.8564 36.2792 26.8701 36.1702 26.8701Z" fill="#E99531"/>
<path id="Vector_2" d="M40.074 50.3347C34.5085 50.3347 29.9805 45.8067 29.9805 40.2412C29.9805 34.675 34.5085 30.1477 40.074 30.1477C45.6395 30.1477 50.1675 34.675 50.1675 40.2412C50.1675 45.8067 45.6395 50.3347 40.074 50.3347ZM40.074 32.6709C35.8997 32.6709 32.5037 36.0669 32.5037 40.2412C32.5037 44.4155 35.8997 47.8108 40.074 47.8108C44.2483 47.8108 47.6443 44.4155 47.6443 40.2412C47.6443 36.0669 44.2483 32.6709 40.074 32.6709Z" fill="#E99531"/>
<path id="Vector_3" d="M37.1199 35.2115C37.1199 35.1227 37.1791 35.062 37.2686 35.062H40.8689C42.9156 35.062 43.9307 36.1081 43.9307 37.7361C43.9307 38.9165 43.364 39.6334 42.5713 39.9474V39.977C43.2593 40.1719 44.1105 40.9632 44.1105 42.3233C44.1105 44.2213 42.9156 45.2212 40.7938 45.2212H37.2686C37.1783 45.2212 37.1191 45.162 37.1191 45.0725V35.2115H37.1199ZM40.8393 39.4543C41.9591 39.4543 42.6175 38.8118 42.6175 37.8704C42.6175 36.8994 41.9591 36.2727 40.8393 36.2727H38.5378C38.4786 36.2727 38.449 36.3023 38.449 36.3622V39.3648C38.449 39.4254 38.4786 39.455 38.5378 39.455H40.8393V39.4543ZM38.5378 44.0112H40.913C42.1229 44.0112 42.7814 43.3536 42.7814 42.3378C42.7814 41.3372 42.1229 40.6643 40.913 40.6643H38.5378C38.4786 40.6643 38.449 40.6946 38.449 40.7545V43.921C38.449 43.9816 38.4786 44.0112 38.5378 44.0112Z" fill="#E99531"/>
<path id="Vector_4" d="M27.4583 25.1005H6.00928C5.31189 25.1005 4.74805 24.5367 4.74805 23.8393V20.9544C4.74805 18.3114 7.13768 16.1549 10.0977 16.1036L16.528 15.0402C16.6637 15.0178 16.8038 15.0178 16.9395 15.0402L23.3699 16.1036C26.3299 16.1549 28.7202 18.3114 28.7202 20.9544V23.8393C28.7195 24.5367 28.1557 25.1005 27.4583 25.1005ZM7.27124 22.5773H26.1963V20.9544C26.1963 19.6708 24.8795 18.6254 23.2602 18.6254C23.1909 18.6254 23.1223 18.6196 23.0544 18.6081L16.7338 17.5634L10.4131 18.6081C10.3453 18.6196 10.276 18.6254 10.2074 18.6254C8.58807 18.6254 7.27124 19.6701 7.27124 20.9544V22.5773Z" fill="#E99531"/>
<path id="Vector_5" d="M19.768 17.5367H13.6459C11.5919 17.5367 9.91992 15.8647 9.91992 13.8093V8.22434C9.91992 4.57346 12.8907 1.60266 16.5416 1.60266H16.8744C20.5246 1.60266 23.4954 4.57346 23.4954 8.22434V13.8093C23.4954 15.8647 21.8234 17.5367 19.768 17.5367ZM16.5416 4.13885C14.2877 4.13885 12.4554 5.97115 12.4554 8.22434V13.8093C12.4554 14.4663 12.9889 15.0005 13.6459 15.0005H19.768C20.4249 15.0005 20.9592 14.4663 20.9592 13.8093V8.22434C20.9592 5.97043 19.1269 4.13885 16.8737 4.13885H16.5416Z" fill="#E99531"/>
<path id="Vector_6" d="M75.4024 69.2598H53.9534C53.256 69.2598 52.6914 68.6952 52.6914 67.9978V65.1136C52.6914 62.4706 55.0818 60.3141 58.0417 60.2629L64.4721 59.1995C64.6078 59.1771 64.7479 59.1771 64.8836 59.1995L71.314 60.2629C74.274 60.3141 76.6643 62.4706 76.6643 65.1136V67.9978C76.6636 68.6952 76.0998 69.2598 75.4024 69.2598ZM55.2153 66.7366H74.1404V65.1136C74.1404 63.83 72.8228 62.7846 71.2042 62.7846C71.1349 62.7846 71.0656 62.7789 70.9985 62.7673L64.6779 61.7227L58.3572 62.7673C58.2894 62.7789 58.2201 62.7846 58.1515 62.7846C56.5322 62.7846 55.2153 63.8293 55.2153 65.1136V66.7366Z" fill="#E99531"/>
<path id="Vector_7" d="M67.7133 61.696H61.5912C59.5373 61.696 57.8652 60.024 57.8652 57.9686V52.3836C57.8652 48.7328 60.836 45.762 64.4862 45.762H64.819C68.4699 45.762 71.4407 48.7328 71.4407 52.3836V57.9686C71.44 60.024 69.7687 61.696 67.7133 61.696ZM64.4862 48.2982C62.233 48.2982 60.4007 50.1305 60.4007 52.3836V57.9686C60.4007 58.6256 60.9342 59.1598 61.5912 59.1598H67.7133C68.3703 59.1598 68.9045 58.6256 68.9045 57.9686V52.3836C68.9045 50.1297 67.0722 48.2982 64.819 48.2982H64.4862Z" fill="#E99531"/>
<path id="Vector_8" d="M74.1403 38.9792H71.6171C71.6171 22.2185 59.0726 8.20124 42.4375 6.37399L42.714 3.86523C60.6298 5.83398 74.1403 20.9298 74.1403 38.9792Z" fill="#E99531"/>
<path id="Vector_9" d="M38.8133 74.3069C19.3337 74.3069 3.48633 58.4595 3.48633 38.9792H6.00953C6.00953 57.0683 20.7249 71.783 38.8133 71.783V74.3069Z" fill="#E99531"/>
<path id="Vector_10" d="M45.3332 13.1834L39.4941 4.42408L48.3423 0L49.4707 2.25752L43.1782 5.40231L47.4326 11.7836L45.3332 13.1834Z" fill="#E99531"/>
<path id="Vector_11" d="M35.4417 80.0002L33.4924 78.3982L38.362 72.4732L32.416 68.7155L33.7632 66.5807L42.1269 71.8668L35.4417 80.0002Z" fill="#E99531"/>
</g>
<defs>
<clipPath id="clip0_230_4388">
<rect width="80" height="80" fill="white"/>
</clipPath>
</defs>
</svg>
