<svg width="80" height="80" viewBox="0 0 80 80" fill="none" xmlns="http://www.w3.org/2000/svg">
<g id="059-bitcoin">
<path id="Vector" d="M62.303 51.3223C61.6769 51.3223 61.1261 50.8645 61.0287 50.2266C60.9201 49.5222 61.4045 48.8629 62.1088 48.7558C70.8373 47.4209 77.4188 39.7445 77.4188 30.8994C77.4188 20.9386 69.3149 12.8354 59.3541 12.8354C49.3933 12.8354 41.2894 20.9386 41.2894 30.8994C41.2894 35.2282 42.8444 39.4152 45.6685 42.6905C46.1329 43.2309 46.0731 44.0446 45.5334 44.5112C44.9914 44.9741 44.18 44.9173 43.7126 44.3768C40.4854 40.6327 38.709 35.8469 38.709 30.8994C38.709 19.5158 47.9706 10.2542 59.3541 10.2542C70.7377 10.2542 79.9993 19.5158 79.9993 30.8994C79.9993 41.0071 72.475 49.7806 62.4994 51.3067C62.4322 51.3171 62.3672 51.3223 62.303 51.3223Z" fill="#E99531"/>
<path id="Vector_2" d="M64.5166 46.7919C63.985 46.7919 63.4873 46.4618 63.3005 45.931C63.0628 45.2598 63.4142 44.5223 64.0869 44.2853C69.7461 42.2844 73.5478 36.9049 73.5478 30.8994C73.5478 23.0731 67.1804 16.7065 59.3542 16.7065C51.5279 16.7065 45.1605 23.0731 45.1605 30.8994C45.1605 35.4142 47.236 39.5577 50.853 42.2667C51.4245 42.6942 51.5404 43.5026 51.1129 44.0741C50.6847 44.6426 49.8785 44.7593 49.3063 44.3332C45.0321 41.1319 42.5801 36.2345 42.5801 30.8994C42.5801 21.6503 50.1051 14.1253 59.3542 14.1253C68.6032 14.1253 76.1283 21.6503 76.1283 30.8994C76.1283 37.9962 71.6348 44.3539 64.9463 46.7173C64.8038 46.7675 64.6591 46.7919 64.5166 46.7919Z" fill="#E99531"/>
<path id="Vector_3" d="M55.1797 23.7693C55.1797 23.6327 55.2705 23.5434 55.4049 23.5434H61.1129C64.363 23.5434 65.8965 25.1677 65.8965 27.6271C65.8965 29.3651 65.0844 30.3567 64.1149 30.8757V30.9215C65.0622 31.2826 66.1675 32.5015 66.1675 34.3739C66.1675 37.4195 64.2493 38.8859 60.8877 38.8859H55.4049C55.2705 38.8859 55.1797 38.7958 55.1797 38.6607V23.7693ZM61.0464 29.9277C62.3998 29.9277 63.2349 29.1163 63.2349 27.9209C63.2349 26.702 62.3998 25.8891 61.0464 25.8891H57.9765C57.8871 25.8891 57.8421 25.9348 57.8421 26.0242V29.7933C57.8421 29.8827 57.8871 29.9277 57.9765 29.9277H61.0464ZM57.9765 36.5395H61.1808C62.6708 36.5395 63.5051 35.6815 63.5051 34.3961C63.5051 33.1321 62.6708 32.2741 61.1808 32.2741H57.9765C57.8871 32.2741 57.8421 32.3199 57.8421 32.41V36.4036C57.8421 36.4944 57.8871 36.5395 57.9765 36.5395Z" fill="#E99531"/>
<path id="Vector_4" d="M59.3551 25.7384C58.6418 25.7384 58.0645 25.1611 58.0645 24.4478V21.8674C58.0645 21.1542 58.6418 20.5768 59.3551 20.5768C60.0683 20.5768 60.6449 21.1542 60.6449 21.8674V24.4478C60.6449 25.1611 60.0683 25.7384 59.3551 25.7384Z" fill="#E99531"/>
<path id="Vector_5" d="M59.3551 41.2219C58.6418 41.2219 58.0645 40.6453 58.0645 39.9321V38.6415C58.0645 37.9283 58.6418 37.3516 59.3551 37.3516C60.0683 37.3516 60.6449 37.9283 60.6449 38.6415V39.9321C60.6449 40.6453 60.0683 41.2219 59.3551 41.2219Z" fill="#E99531"/>
<path id="Vector_6" d="M39.9543 69.6092H30.7939C28.2105 69.6092 25.9571 68.0609 25.0025 65.7381H11.6129C10.8996 65.7381 10.3223 65.1615 10.3223 64.4483V47.6742C10.3223 46.961 10.8996 46.3836 11.6129 46.3836H25.0025C25.9571 44.0616 28.2105 42.5125 30.7939 42.5125H61.2898C63.7802 42.5125 65.8062 44.5385 65.8062 47.0289C65.8062 49.5185 63.7802 51.5445 61.2898 51.5445H50.1699L49.0321 60.6149C48.9863 65.5824 44.9314 69.6092 39.9543 69.6092ZM12.9027 63.1577H25.9423C26.5433 63.1577 27.0646 63.5734 27.1997 64.1596C27.5866 65.8489 29.0647 67.0287 30.7939 67.0287H39.9543C43.5367 67.0287 46.4516 64.1146 46.4516 60.5315C46.4516 60.4776 46.4553 60.4244 46.4612 60.3705L47.7518 50.093C47.8323 49.4484 48.3816 48.9641 49.0321 48.9641H61.2898C62.3574 48.9641 63.2257 48.0965 63.2257 47.0289C63.2257 45.9613 62.3574 45.093 61.2898 45.093H30.7939C29.0647 45.093 27.5866 46.2728 27.1997 47.9629C27.0646 48.5484 26.5433 48.9641 25.9423 48.9641H12.9027V63.1577Z" fill="#E99531"/>
<path id="Vector_7" d="M49.0331 51.5445H42.5816C41.8684 51.5445 41.291 50.9679 41.291 50.2546C41.291 49.5414 41.8684 48.9641 42.5816 48.9641H49.0331C49.7464 48.9641 50.323 49.5414 50.323 50.2546C50.323 50.9679 49.7464 51.5445 49.0331 51.5445Z" fill="#E99531"/>
<path id="Vector_8" d="M47.741 56.7062H43.8699C43.1567 56.7062 42.5801 56.1288 42.5801 55.4156C42.5801 54.7023 43.1567 54.1257 43.8699 54.1257H47.741C48.4542 54.1257 49.0316 54.7023 49.0316 55.4156C49.0316 56.1288 48.4542 56.7062 47.741 56.7062Z" fill="#E99531"/>
<path id="Vector_9" d="M47.741 61.8671H43.8699C43.1567 61.8671 42.5801 61.2904 42.5801 60.5772C42.5801 59.864 43.1567 59.2866 43.8699 59.2866H47.741C48.4542 59.2866 49.0316 59.864 49.0316 60.5772C49.0316 61.2904 48.4542 61.8671 47.741 61.8671Z" fill="#E99531"/>
<path id="Vector_10" d="M11.6132 69.6092H1.2906C0.577373 69.6092 0 69.0326 0 68.3193V43.8031C0 43.0899 0.577373 42.5125 1.2906 42.5125H11.6132C12.3264 42.5125 12.903 43.0899 12.903 43.8031V68.3193C12.903 69.0326 12.3264 69.6092 11.6132 69.6092ZM2.58046 67.0287H10.3226V45.093H2.58046V67.0287Z" fill="#E99531"/>
<path id="Vector_11" d="M6.45155 65.7381C5.02879 65.7381 3.87109 64.5804 3.87109 63.1577C3.87109 61.7349 5.02879 60.5772 6.45155 60.5772C7.87431 60.5772 9.03201 61.7349 9.03201 63.1577C9.03201 64.5804 7.87431 65.7381 6.45155 65.7381Z" fill="#E99531"/>
<path id="Vector_12" d="M39.9992 14.1253H33.5477C32.8344 14.1253 32.2578 13.5487 32.2578 12.8354C32.2578 12.1222 32.8344 11.5448 33.5477 11.5448H39.9992C40.7124 11.5448 41.2898 12.1222 41.2898 12.8354C41.2898 13.5487 40.7124 14.1253 39.9992 14.1253Z" fill="#E99531"/>
<path id="Vector_13" d="M32.2585 17.9963H16.7742C16.061 17.9963 15.4844 17.4197 15.4844 16.7065C15.4844 15.9932 16.061 15.4159 16.7742 15.4159H32.2585C32.9717 15.4159 33.5483 15.9932 33.5483 16.7065C33.5483 17.4197 32.9717 17.9963 32.2585 17.9963Z" fill="#E99531"/>
<path id="Vector_14" d="M30.9687 25.7384H24.5172C23.8039 25.7384 23.2266 25.1611 23.2266 24.4478C23.2266 23.7346 23.8039 23.158 24.5172 23.158H30.9687C31.6819 23.158 32.2593 23.7346 32.2593 24.4478C32.2593 25.1611 31.6819 25.7384 30.9687 25.7384Z" fill="#E99531"/>
<path id="Vector_15" d="M33.5482 34.7704H5.16169C4.44847 34.7704 3.87109 34.1938 3.87109 33.4806C3.87109 32.7673 4.44847 32.19 5.16169 32.19H33.5482C34.2614 32.19 34.8388 32.7673 34.8388 33.4806C34.8388 34.1938 34.2614 34.7704 33.5482 34.7704Z" fill="#E99531"/>
</g>
</svg>
