<svg width="80" height="80" viewBox="0 0 80 80" fill="none" xmlns="http://www.w3.org/2000/svg">
<g id="078-network" clip-path="url(#clip0_230_4364)">
<path id="Vector" d="M42.6595 24C41.9232 24 41.3258 23.4033 41.3258 22.6663V9.33311C41.3228 9.37965 41.3152 9.30411 41.3121 9.24918C41.2816 8.73648 41.5486 8.25201 41.998 8.00329C42.4481 7.75228 42.999 7.78585 43.4178 8.08569L48.5509 11.7524C49.1308 12.1636 50.0005 12.0179 50.411 11.4411C50.8382 10.8414 50.6986 10.0083 50.1005 9.5803L40.7681 2.91369C40.3058 2.58409 39.6825 2.58181 39.2163 2.91445L29.884 9.5803C29.2858 10.0083 29.147 10.8414 29.5734 11.4411C29.9999 12.0385 30.8361 12.1751 31.4381 11.7494L36.5674 8.08569C36.9847 7.78585 37.5378 7.75381 37.9872 8.00329C38.4366 8.25201 38.7036 8.73648 38.6731 9.24918C38.6716 9.28428 38.6601 9.38727 38.6555 9.42313L38.6594 22.6663C38.6594 23.4033 38.062 24 37.3257 24C36.5895 24 35.9929 23.4033 35.9929 22.6663V11.773L32.9838 13.9215C31.1848 15.2002 28.6808 14.7821 27.4036 12.9891C26.1219 11.1977 26.5392 8.69376 28.3337 7.41125L37.6675 0.744634C39.0599 -0.247957 40.9291 -0.247957 42.3169 0.743109L51.6508 7.41125C53.446 8.69376 53.8633 11.1977 52.5808 12.9907C51.3479 14.7195 48.7401 15.1612 47.0029 13.923L43.9923 11.773V22.6663C43.9923 23.4033 43.3957 24 42.6595 24Z" fill="#E99531"/>
<path id="Vector_2" d="M39.992 80.0001C39.1772 80.0001 38.3623 79.7529 37.6681 79.257L28.3342 72.5889C26.539 71.3056 26.1217 68.8024 27.4042 67.0095C28.6798 65.2173 31.18 64.7985 32.9805 66.0756L35.9926 68.2264V57.333C35.9926 56.596 36.5893 56.0002 37.3255 56.0002C38.0617 56.0002 38.6591 56.596 38.6591 57.333V70.6663C38.666 70.6213 38.6691 70.6953 38.6729 70.7502C38.7034 71.2629 38.4364 71.7474 37.987 71.9961C37.5361 72.2448 36.9845 72.2135 36.5671 71.9137L31.434 68.247C30.8359 67.8251 29.9989 67.9624 29.5747 68.5575C29.1467 69.1579 29.2856 69.9911 29.8845 70.4191L39.2168 77.0857C39.6807 77.4183 40.304 77.4191 40.7687 77.0849L50.101 70.4191C50.6984 69.9911 50.838 69.1579 50.4108 68.5583C49.9988 67.9822 49.1321 67.8335 48.5492 68.2485L43.4176 71.9137C43.0003 72.2135 42.4479 72.2463 41.997 71.9961C41.5476 71.7474 41.2814 71.2629 41.3119 70.7502C41.3134 70.7151 41.3249 70.6121 41.3294 70.5762L41.3256 57.333C41.3256 56.596 41.923 56.0002 42.6593 56.0002C43.3955 56.0002 43.9921 56.596 43.9921 57.333V68.2264L47.0004 66.0779C48.7415 64.8358 51.3469 65.2799 52.5806 67.0095C53.8631 68.8024 53.4458 71.3064 51.6513 72.5889L42.3167 79.2555C41.6216 79.7514 40.8068 80.0001 39.992 80.0001Z" fill="#E99531"/>
<path id="Vector_3" d="M20.2504 67.6198C19.743 67.6198 19.2349 67.5222 18.7512 67.3253L8.11652 63.0284C6.53189 62.3868 5.53014 60.8098 5.62093 59.1053L6.23739 47.6505C6.35641 45.4494 8.25004 43.7534 10.4473 43.8724C11.7336 43.9395 12.9162 44.6308 13.609 45.7225C14.0568 46.4252 14.2704 47.2408 14.227 48.0777L14.0286 51.7719L23.2198 45.927C23.8408 45.5318 24.6656 45.7157 25.06 46.3359C25.4552 46.9577 25.2721 47.7825 24.6503 48.1769L13.3999 55.3318C13.4281 55.3227 13.3908 55.3501 13.3389 55.3875C12.9208 55.6896 12.3707 55.7263 11.9175 55.4791C11.4666 55.2326 11.1973 54.7497 11.2248 54.2362L11.5635 47.9374C11.578 47.6581 11.5071 47.388 11.359 47.153C11.1263 46.7884 10.7334 46.558 10.3054 46.5358C9.56459 46.5015 8.9405 47.0607 8.90007 47.7947L8.28285 59.2465C8.25309 59.8156 8.58802 60.3413 9.11751 60.5565L19.7491 64.8534C20.0795 64.9854 20.4427 64.9816 20.77 64.8442C21.0973 64.7054 21.3513 64.4475 21.4848 64.1164C21.761 63.4366 21.4292 62.6569 20.7456 62.3784L14.9006 60.0163C14.4261 59.8248 14.1034 59.3792 14.0698 58.8688C14.0362 58.3592 14.2971 57.8732 14.7419 57.6207C14.7755 57.6023 14.8739 57.5528 14.9098 57.5375L26.0824 50.4261C26.7034 50.0316 27.5274 50.217 27.9226 50.8358C28.3178 51.4576 28.1339 52.2823 27.5129 52.6768L18.3209 58.5232L21.7488 59.9087C23.7943 60.7434 24.7838 63.0795 23.9576 65.1189C23.5578 66.1069 22.7956 66.8828 21.8121 67.2994C21.3094 67.513 20.7799 67.6198 20.2504 67.6198Z" fill="#E99531"/>
<path id="Vector_4" d="M69.7545 36.1323C69.6828 36.1323 69.6103 36.1315 69.5378 36.127C67.3429 36.011 65.6461 34.1258 65.7575 31.9231L65.9558 28.2274L56.7646 34.0724C56.1428 34.4676 55.3196 34.2837 54.9244 33.6634C54.5292 33.0416 54.7131 32.2169 55.3341 31.8224L66.5845 24.6675C66.557 24.682 66.5952 24.6492 66.6463 24.6118C67.0629 24.3112 67.6152 24.2731 68.0669 24.5203C68.5178 24.7667 68.7871 25.2497 68.7604 25.7631L68.4209 32.062C68.3835 32.7952 68.9481 33.4254 69.679 33.4635C70.4061 33.5078 71.0462 32.9386 71.0851 32.2047L71.7016 20.7529C71.7313 20.1837 71.3971 19.6573 70.8677 19.4429L60.2353 15.1452C59.9041 15.0117 59.541 15.0163 59.2144 15.1544C58.8871 15.294 58.6331 15.5519 58.4996 15.8822C58.3386 16.2812 58.3798 16.7352 58.6117 17.0999C58.7597 17.3341 58.9772 17.5142 59.2381 17.6194L65.0838 19.983C65.5583 20.1745 65.8818 20.6193 65.9154 21.1298C65.9482 21.6402 65.6873 22.1262 65.2425 22.3787C65.2089 22.397 65.1105 22.4466 65.0754 22.4619L53.9021 29.5725C53.281 29.9669 52.4563 29.7838 52.0618 29.1636C51.6666 28.541 51.8505 27.717 52.4715 27.3226L61.6635 21.4761L58.2363 20.0906C57.4551 19.7748 56.8081 19.2338 56.3603 18.5296C55.669 17.4409 55.5439 16.0775 56.0269 14.8828C56.4274 13.8932 57.1888 13.1165 58.173 12.7C59.1572 12.2834 60.2444 12.272 61.2347 12.674L71.8686 16.9709C73.4533 17.6133 74.455 19.1896 74.3642 20.8948L73.7478 32.3489C73.631 34.4775 71.8618 36.1323 69.7545 36.1323Z" fill="#E99531"/>
<path id="Vector_5" d="M60.7482 66.7371C59.2269 66.7371 57.7712 65.8673 57.1014 64.3956C56.5665 63.2237 56.6322 61.8558 57.2768 60.7365C57.6926 60.014 58.3175 59.4464 59.0812 59.0985L62.4466 57.565L53.0089 52.1237C52.3711 51.7559 52.1529 50.9396 52.5199 50.3033C52.8876 49.6654 53.704 49.4434 54.341 49.8135L65.892 56.4732C65.8577 56.4473 65.918 56.4763 65.9714 56.5022C66.4307 56.7326 66.7175 57.2049 66.7084 57.7183C66.6984 58.2326 66.3956 58.6949 65.9279 58.9085L60.1875 61.5239C59.9327 61.6399 59.7251 61.8291 59.587 62.0686C59.3711 62.4425 59.3482 62.8995 59.5268 63.2901C59.8312 63.9607 60.6254 64.2552 61.2953 63.9516L71.7316 59.1946C72.2496 58.9589 72.5602 58.4187 72.506 57.8518L71.3921 46.4351C71.3578 46.0811 71.1869 45.7622 70.9122 45.5356C70.6375 45.3106 70.2904 45.2076 69.9356 45.2388C69.2047 45.309 68.6684 45.9652 68.737 46.6999L69.3497 52.9743C69.3993 53.4878 69.1483 53.9845 68.7042 54.2492C68.2617 54.5132 67.7048 54.4979 67.276 54.2073C67.2485 54.1889 67.1677 54.1294 67.1425 54.1096L55.6731 47.5017C55.0345 47.1348 54.8163 46.3184 55.1841 45.6813C55.5511 45.042 56.3659 44.8238 57.0052 45.1915L66.4421 50.6329L66.0835 46.9532C65.876 44.7544 67.4889 42.7974 69.6777 42.5853C70.7436 42.4861 71.7804 42.7989 72.6044 43.4757C73.4307 44.1539 73.9426 45.1137 74.0464 46.1765L75.1595 57.5947C75.3251 59.2938 74.392 60.912 72.8379 61.6216L62.3993 66.3785C61.8644 66.6219 61.3021 66.7371 60.7482 66.7371Z" fill="#E99531"/>
<path id="Vector_6" d="M9.9094 37.4331C8.98776 37.4331 8.10046 37.1173 7.37871 36.5237C6.55244 35.8447 6.04051 34.8857 5.93675 33.8229L4.82361 22.4046C4.65805 20.7056 5.59113 19.0866 7.14525 18.3771L17.5839 13.6209C19.5912 12.7091 21.9685 13.5972 22.8825 15.6037C23.7958 17.6019 22.9092 19.98 20.905 20.9009L17.5366 22.4344L26.9742 27.8757C27.612 28.2435 27.8302 29.0598 27.4632 29.6961C27.0947 30.3339 26.2784 30.5514 25.6421 30.1859L14.0911 23.5262C14.1254 23.5521 14.0652 23.5231 14.0118 23.4972C13.5525 23.2668 13.2656 22.7945 13.2747 22.281C13.2847 21.7668 13.5876 21.3045 14.0552 21.0916L19.7956 18.4755C20.4625 18.1695 20.7608 17.3761 20.4556 16.7093C20.1512 16.0402 19.3569 15.7449 18.6878 16.0485L8.25076 20.8047C7.73348 21.0405 7.4222 21.5807 7.47713 22.1475L8.59027 33.5642C8.62536 33.9182 8.79626 34.2372 9.07092 34.4637C9.34558 34.6888 9.68586 34.7865 10.0475 34.7605C10.4755 34.7193 10.8585 34.4714 11.0737 34.0991C11.2133 33.8572 11.2728 33.5825 11.2453 33.3025L10.6334 27.025C10.5831 26.5116 10.8349 26.0149 11.2789 25.7502C11.7229 25.4885 12.2791 25.503 12.7071 25.7921C12.7346 25.8104 12.8155 25.8699 12.8406 25.8898L24.31 32.4976C24.9478 32.8646 25.1668 33.681 24.799 34.318C24.4305 34.9558 23.6142 35.1748 22.9779 34.8078L13.541 29.3665L13.8996 33.0462C13.9805 33.8816 13.8019 34.7064 13.3839 35.4312C12.7399 36.5489 11.5886 37.2905 10.3054 37.4141C10.1726 37.427 10.0414 37.4331 9.9094 37.4331Z" fill="#E99531"/>
<path id="Vector_7" d="M39.9924 58.6667C29.6995 58.6667 21.3262 50.2926 21.3262 39.9997C21.3262 29.7068 29.6995 21.3327 39.9924 21.3327C50.286 21.3327 58.6594 29.7068 58.6594 39.9997C58.6594 50.2926 50.286 58.6667 39.9924 58.6667ZM39.9924 24C31.1705 24 23.9927 31.177 23.9927 39.9997C23.9927 48.8231 31.1705 56.0002 39.9924 56.0002C48.8151 56.0002 55.9929 48.8231 55.9929 39.9997C55.9929 31.177 48.8151 24 39.9924 24ZM39.9924 50.6664C34.1108 50.6664 29.3257 45.8812 29.3257 39.9997C29.3257 34.1181 34.1108 29.3329 39.9924 29.3329C45.8747 29.3329 50.6591 34.1181 50.6591 39.9997C50.6591 45.8812 45.8747 50.6664 39.9924 50.6664ZM39.9924 31.9994C35.581 31.9994 31.9929 35.5883 31.9929 39.9997C31.9929 44.411 35.581 47.9999 39.9924 47.9999C44.4037 47.9999 47.9926 44.411 47.9926 39.9997C47.9926 35.5883 44.4037 31.9994 39.9924 31.9994Z" fill="#E99531"/>
</g>
<defs>
<clipPath id="clip0_230_4364">
<rect width="80" height="80" fill="white"/>
</clipPath>
</defs>
</svg>
