<svg width="100" height="100" viewBox="0 0 100 100" fill="none" xmlns="http://www.w3.org/2000/svg">
<g id="003-atom" clip-path="url(#clip0_230_4335)">
<path id="Vector" d="M33.8356 59.9108C33.5191 59.9108 33.2008 59.816 32.9254 59.6175C32.2236 59.1141 32.0635 58.1378 32.5669 57.4369L44.4679 40.8724L39.3913 37.2273L27.1891 54.2129C26.6848 54.9147 25.7058 55.0747 25.0084 54.5714C24.3066 54.068 24.1465 53.0917 24.6499 52.3907L37.7641 34.1356C38.2666 33.4338 39.2465 33.2737 39.9448 33.7771L47.5587 39.2461C47.8957 39.4884 48.1237 39.8532 48.1908 40.2618C48.256 40.6713 48.1586 41.0906 47.9172 41.4259L35.1061 59.259C34.8012 59.6846 34.322 59.9108 33.8356 59.9108Z" fill="#E99531"/>
<path id="Vector_2" d="M20.3124 92.3646C9.11236 92.3646 0 83.2523 0 72.0522C0 60.8522 9.11236 51.7399 20.3124 51.7399C30.0121 51.7399 38.3976 58.6394 40.2492 68.146C40.4146 68.9927 39.8621 69.8135 39.0154 69.978C38.1687 70.1425 37.3471 69.5909 37.1826 68.7442C35.6153 60.7011 28.5199 54.8646 20.3124 54.8646C10.8352 54.8646 3.12477 62.5751 3.12477 72.0522C3.12477 81.5294 10.8352 89.2398 20.3124 89.2398C27.4015 89.2398 33.6742 84.9823 36.293 78.393C36.6131 77.591 37.5214 77.2012 38.3225 77.5177C39.1254 77.836 39.5152 78.7461 39.1978 79.5472C36.1043 87.3337 28.6907 92.3646 20.3124 92.3646Z" fill="#E99531"/>
<path id="Vector_3" d="M49.9999 48.6142C47.6726 48.6142 45.3936 48.2235 43.221 47.4546C42.4074 47.1667 41.9819 46.2736 42.2697 45.4609C42.555 44.6473 43.4499 44.2217 44.2644 44.5096C46.0999 45.1596 48.0302 45.4895 49.9999 45.4895C59.477 45.4895 67.1875 37.779 67.1875 28.3019C67.1875 18.8247 59.477 11.1143 49.9999 11.1143C40.5227 11.1143 32.8123 18.8247 32.8123 28.3019C32.8123 31.9273 33.9263 35.3927 36.0354 38.3235C36.5405 39.0245 36.3796 40.0008 35.6796 40.5041C34.9795 41.0075 34.0041 40.8492 33.4989 40.1492C31.0054 36.6838 29.6875 32.5871 29.6875 28.3019C29.6875 17.1019 38.7999 7.9895 49.9999 7.9895C61.1999 7.9895 70.3122 17.1019 70.3122 28.3019C70.3122 39.5019 61.1999 48.6142 49.9999 48.6142Z" fill="#E99531"/>
<path id="Vector_4" d="M37.5003 29.8646C36.6367 29.8646 35.9375 29.1655 35.9375 28.3018C35.9375 20.5475 42.2461 14.2399 50.0003 14.2399C50.864 14.2399 51.5632 14.9381 51.5632 15.8018C51.5632 16.6655 50.864 17.3646 50.0003 17.3646C43.9698 17.3646 39.0632 22.2713 39.0632 28.3018C39.0632 29.1655 38.364 29.8646 37.5003 29.8646Z" fill="#E99531"/>
<path id="Vector_5" d="M79.6874 92.3646C68.4874 92.3646 59.375 83.2523 59.375 72.0522C59.375 67.4236 60.9727 62.8952 63.8749 59.3001C64.4131 58.6287 65.401 58.5223 66.0725 59.065C66.7439 59.6068 66.8485 60.5903 66.3076 61.2626C63.8516 64.3051 62.4998 68.1371 62.4998 72.0522C62.4998 81.5294 70.2102 89.2398 79.6874 89.2398C89.1645 89.2398 96.875 81.5294 96.875 72.0522C96.875 62.5751 89.1645 54.8646 79.6874 54.8646C78.062 54.8646 76.4571 55.0899 74.9139 55.5361C74.0842 55.7739 73.2188 55.2983 72.9792 54.4677C72.7404 53.6398 73.2188 52.7725 74.0476 52.5329C75.8706 52.0063 77.7696 51.7399 79.6874 51.7399C90.8874 51.7399 99.9997 60.8522 99.9997 72.0522C99.9997 83.2523 90.8874 92.3646 79.6874 92.3646Z" fill="#E99531"/>
<path id="Vector_6" d="M71.8473 69.995C71.3609 69.995 70.8817 69.7688 70.5768 69.3432L54.547 47.0317C54.2574 46.6276 54.176 46.109 54.3316 45.6361C54.4862 45.1613 54.8582 44.7903 55.3311 44.6356C58.075 43.7406 60.5811 42.1349 62.5749 39.9891C62.8932 39.6467 63.3348 39.4786 63.8185 39.4929C64.2852 39.5215 64.7162 39.7602 64.9889 40.1411L80.7299 62.053C80.9713 62.3882 81.0687 62.8085 81.0026 63.217C80.9355 63.6256 80.7084 63.9904 80.3713 64.2336L72.7574 69.7017C72.4821 69.9002 72.1629 69.995 71.8473 69.995ZM58.2637 46.8493L72.2031 66.2524L77.2796 62.6064L63.5119 43.442C61.9428 44.8439 60.168 45.9964 58.2637 46.8493Z" fill="#E99531"/>
<path id="Vector_7" d="M62.0272 79.8646H29.6878C28.8242 79.8646 28.125 79.1655 28.125 78.3018V68.9266C28.125 68.0629 28.8242 67.3646 29.6878 67.3646H61.219C61.6777 67.3646 62.114 67.5676 62.4117 67.9172C62.7085 68.2676 62.8364 68.7317 62.7604 69.1849C62.586 70.2256 62.5011 71.1635 62.5011 72.0522C62.5011 73.9781 62.8364 75.9066 63.5007 77.7805C63.6696 78.2598 63.5963 78.7899 63.3031 79.2039C63.0098 79.6187 62.5342 79.8646 62.0272 79.8646ZM31.2507 76.7398H59.9351C59.5632 75.1922 59.3754 73.6231 59.3754 72.0522C59.3754 71.5435 59.3987 71.0249 59.4443 70.4894H31.2507V76.7398Z" fill="#E99531"/>
</g>
<defs>
<clipPath id="clip0_230_4335">
<rect width="100" height="100" fill="white"/>
</clipPath>
</defs>
</svg>
