<svg width="100" height="100" viewBox="0 0 100 100" fill="none" xmlns="http://www.w3.org/2000/svg">
<g id="013-wallet">
<path id="Vector" d="M5.70458 41.5021C4.66165 41.5021 3.81738 40.6579 3.81738 39.615C3.81738 28.1741 13.1238 18.8677 24.5647 18.8677H27.5498C28.5928 18.8677 29.436 19.7119 29.436 20.7549C29.436 21.7978 28.5928 22.6421 27.5498 22.6421H24.5647C15.2043 22.6421 7.59069 30.2556 7.59069 39.615C7.59069 40.6579 6.7475 41.5021 5.70458 41.5021Z" fill="#E99531"/>
<path id="Vector_2" d="M29.5272 31.4475C28.7499 31.4475 28.0222 30.9649 27.749 30.1887C26.8929 27.7692 26.46 25.2299 26.46 22.642C26.46 10.1561 36.6161 0 49.1009 0C61.5868 0 71.7429 10.1561 71.7429 22.642C71.7429 25.0593 71.3629 27.4377 70.6147 29.7147C70.2887 30.7047 69.2198 31.2424 68.232 30.9185C67.243 30.5924 66.7054 29.5258 67.0293 28.5357C67.6522 26.6399 67.9685 24.6566 67.9685 22.642C67.9685 12.2387 59.5042 3.77331 49.1009 3.77331C38.6976 3.77331 30.2333 12.2387 30.2333 22.642C30.2333 24.8013 30.5949 26.9163 31.3053 28.932C31.653 29.9144 31.138 30.9919 30.1555 31.3385C29.9482 31.4119 29.7356 31.4475 29.5272 31.4475Z" fill="#E99531"/>
<path id="Vector_3" d="M49.101 15.0944C48.058 15.0944 47.2148 14.2501 47.2148 13.2072V9.43385C47.2148 8.39092 48.058 7.54773 49.101 7.54773C50.1439 7.54773 50.9882 8.39092 50.9882 9.43385V13.2072C50.9882 14.2501 50.1439 15.0944 49.101 15.0944Z" fill="#E99531"/>
<path id="Vector_4" d="M86.217 99.9998H13.8698C8.32808 99.9998 3.81738 95.4902 3.81738 89.9474V38.355C3.81738 32.8122 8.32808 28.3015 13.8698 28.3015H86.217C91.7598 28.3015 96.2694 32.8122 96.2694 38.355V89.9463C96.2705 95.4902 91.7598 99.9998 86.217 99.9998ZM13.8698 32.0759C10.4085 32.0759 7.59069 34.8927 7.59069 38.355V89.9463C7.59069 93.4087 10.4085 96.2265 13.8698 96.2265H86.217C89.6794 96.2265 92.4961 93.4087 92.4961 89.9474V38.355C92.4961 34.8927 89.6783 32.0759 86.217 32.0759H13.8698Z" fill="#E99531"/>
<path id="Vector_5" d="M94.3838 79.2449H72.6854C65.9237 79.2449 60.4219 73.7431 60.4219 66.9814C60.4219 60.2186 65.9237 54.7168 72.6854 54.7168H94.3838C95.4268 54.7168 96.271 55.5611 96.271 56.604V77.3588C96.271 78.4018 95.4268 79.2449 94.3838 79.2449ZM72.6854 58.4901C68.0041 58.4901 64.1952 62.299 64.1952 66.9814C64.1952 71.6627 68.0041 75.4716 72.6854 75.4716H92.4977V58.4901H72.6854Z" fill="#E99531"/>
<path id="Vector_6" d="M72.6851 73.5844C69.0445 73.5844 66.082 70.6219 66.082 66.9814C66.082 63.3398 69.0445 60.3773 72.6851 60.3773C76.3267 60.3773 79.2892 63.3398 79.2892 66.9814C79.2892 70.6219 76.3267 73.5844 72.6851 73.5844ZM72.6851 64.1506C71.125 64.1506 69.8553 65.4203 69.8553 66.9814C69.8553 68.5415 71.125 69.8111 72.6851 69.8111C74.2462 69.8111 75.5158 68.5415 75.5158 66.9814C75.5158 65.4203 74.2462 64.1506 72.6851 64.1506Z" fill="#E99531"/>
<path id="Vector_7" d="M9.47789 41.5096H5.70458C4.66165 41.5096 3.81738 40.6654 3.81738 39.6224C3.81738 38.5795 4.66165 37.7363 5.70458 37.7363H9.47789C10.5208 37.7363 11.3651 38.5795 11.3651 39.6224C11.3651 40.6654 10.5208 41.5096 9.47789 41.5096Z" fill="#E99531"/>
<path id="Vector_8" d="M83.234 41.5096H75.858C74.8151 41.5096 73.9708 40.6654 73.9708 39.6224C73.9708 38.5795 74.8151 37.7363 75.858 37.7363H83.234C84.277 37.7363 85.1212 38.5795 85.1212 39.6224C85.1212 40.6654 84.277 41.5096 83.234 41.5096ZM68.483 41.5096H61.107C60.0641 41.5096 59.2198 40.6654 59.2198 39.6224C59.2198 38.5795 60.0641 37.7363 61.107 37.7363H68.483C69.526 37.7363 70.3692 38.5795 70.3692 39.6224C70.3692 40.6654 69.526 41.5096 68.483 41.5096ZM53.7331 41.5096H46.3571C45.3142 41.5096 44.4699 40.6654 44.4699 39.6224C44.4699 38.5795 45.3142 37.7363 46.3571 37.7363H53.7331C54.776 37.7363 55.6192 38.5795 55.6192 39.6224C55.6192 40.6654 54.776 41.5096 53.7331 41.5096ZM38.981 41.5096H31.605C30.5621 41.5096 29.7189 40.6654 29.7189 39.6224C29.7189 38.5795 30.5621 37.7363 31.605 37.7363H38.981C40.024 37.7363 40.8682 38.5795 40.8682 39.6224C40.8682 40.6654 40.024 41.5096 38.981 41.5096ZM24.229 41.5096H16.854C15.8111 41.5096 14.9668 40.6654 14.9668 39.6224C14.9668 38.5795 15.8111 37.7363 16.854 37.7363H24.23C25.273 37.7363 26.1161 38.5795 26.1161 39.6224C26.1161 40.6654 25.2719 41.5096 24.229 41.5096Z" fill="#E99531"/>
<path id="Vector_9" d="M94.3832 41.5096H90.6099C89.5669 41.5096 88.7227 40.6654 88.7227 39.6224C88.7227 38.5795 89.5669 37.7363 90.6099 37.7363H94.3832C95.4261 37.7363 96.2704 38.5795 96.2704 39.6224C96.2704 40.6654 95.4261 41.5096 94.3832 41.5096Z" fill="#E99531"/>
<path id="Vector_10" d="M46.8892 30.1886V24.8509C46.8892 24.7181 46.9562 24.6522 47.0868 24.6522H51.7724C53.95 24.6522 55.17 25.9068 55.17 27.7551C55.17 28.798 54.7813 29.638 54.0731 30.1886H58.6745C58.9131 29.4577 59.0632 28.6523 59.0632 27.7216C59.0632 24.9837 57.447 23.2023 56.0618 22.6733V22.6063C57.4804 21.8474 58.6669 20.3974 58.6669 17.857C58.6669 14.2597 56.4245 11.8845 51.6731 11.8845H43.3265C43.1289 11.8845 42.9961 12.0152 42.9961 12.2149V30.1886H46.8892ZM46.8892 15.5132C46.8892 15.3825 46.9562 15.3156 47.0868 15.3156H51.5748C53.5538 15.3156 54.776 16.5043 54.776 18.2857C54.776 20.0347 53.5538 21.2212 51.5748 21.2212H47.0868C46.9562 21.2212 46.8892 21.1542 46.8892 21.0236V15.5132Z" fill="#E99531"/>
</g>
</svg>
