<svg width="100" height="100" viewBox="0 0 100 100" fill="none" xmlns="http://www.w3.org/2000/svg">
<g id="015-blockchain" clip-path="url(#clip0_230_4299)">
<path id="Vector" d="M40.3844 42.3079H1.92349C0.860508 42.3079 0 41.4474 0 40.3844V1.92349C0 0.860508 0.860508 0 1.92349 0H40.3844C41.4463 0 42.3079 0.860508 42.3079 1.92349V40.3844C42.3079 41.4474 41.4463 42.3079 40.3844 42.3079ZM3.84588 38.4621H38.4621V3.84588H3.84588V38.4621Z" fill="#E99531"/>
<path id="Vector_2" d="M21.1538 28.8457C16.9129 28.8457 13.4609 25.3959 13.4609 21.1539C13.4609 16.9119 16.9129 13.4611 21.1538 13.4611C25.3947 13.4611 28.8455 16.9119 28.8455 21.1539C28.8455 25.3959 25.3947 28.8457 21.1538 28.8457ZM21.1538 17.308C19.0322 17.308 17.3079 19.0335 17.3079 21.1539C17.3079 23.2744 19.0322 24.9998 21.1538 24.9998C23.2753 24.9998 24.9997 23.2744 24.9997 21.1539C24.9997 19.0335 23.2753 17.308 21.1538 17.308Z" fill="#E99531"/>
<path id="Vector_3" d="M98.0768 42.3079H59.6148C58.5529 42.3079 57.6924 41.4474 57.6924 40.3844V1.92349C57.6924 0.860508 58.5529 0 59.6148 0H98.0768C99.1387 0 100 0.860508 100 1.92349V40.3844C100 41.4474 99.1387 42.3079 98.0768 42.3079ZM61.5383 38.4621H96.1533V3.84588H61.5383V38.4621Z" fill="#E99531"/>
<path id="Vector_4" d="M78.8462 28.8457C74.6042 28.8457 71.1533 25.3959 71.1533 21.1539C71.1533 16.9119 74.6042 13.4611 78.8462 13.4611C83.0871 13.4611 86.5379 16.9119 86.5379 21.1539C86.5379 25.3959 83.0871 28.8457 78.8462 28.8457ZM78.8462 17.308C76.7246 17.308 74.9992 19.0335 74.9992 21.1539C74.9992 23.2744 76.7246 24.9998 78.8462 24.9998C80.9666 24.9998 82.692 23.2744 82.692 21.1539C82.692 19.0335 80.9666 17.308 78.8462 17.308Z" fill="#E99531"/>
<path id="Vector_5" d="M40.3844 100H1.92349C0.860508 100 0 99.1399 0 98.0769V59.6149C0 58.5519 0.860508 57.6925 1.92349 57.6925H40.3844C41.4463 57.6925 42.3079 58.5519 42.3079 59.6149V98.0769C42.3079 99.1399 41.4463 100 40.3844 100ZM3.84588 96.1535H38.4621V61.5384H3.84588V96.1535Z" fill="#E99531"/>
<path id="Vector_6" d="M21.1538 86.5383C16.9129 86.5383 13.4609 83.0886 13.4609 78.8465C13.4609 74.6034 16.9129 71.1537 21.1538 71.1537C25.3947 71.1537 28.8455 74.6034 28.8455 78.8465C28.8455 83.0886 25.3947 86.5383 21.1538 86.5383ZM21.1538 74.9996C19.0322 74.9996 17.3079 76.7261 17.3079 78.8465C17.3079 80.9659 19.0322 82.6924 21.1538 82.6924C23.2753 82.6924 24.9997 80.9659 24.9997 78.8465C24.9997 76.7261 23.2753 74.9996 21.1538 74.9996Z" fill="#E99531"/>
<path id="Vector_7" d="M98.0768 100H59.6148C58.5529 100 57.6924 99.1399 57.6924 98.0769V59.6149C57.6924 58.5519 58.5529 57.6925 59.6148 57.6925H98.0768C99.1387 57.6925 100 58.5519 100 59.6149V98.0769C100 99.1399 99.1387 100 98.0768 100ZM61.5383 96.1535H96.1533V61.5384H61.5383V96.1535Z" fill="#E99531"/>
<path id="Vector_8" d="M78.8462 86.5383C74.6042 86.5383 71.1533 83.0886 71.1533 78.8465C71.1533 74.6034 74.6042 71.1537 78.8462 71.1537C83.0871 71.1537 86.5379 74.6034 86.5379 78.8465C86.5379 83.0886 83.0871 86.5383 78.8462 86.5383ZM78.8462 74.9996C76.7246 74.9996 74.9992 76.7261 74.9992 78.8465C74.9992 80.9659 76.7246 82.6924 78.8462 82.6924C80.9666 82.6924 82.692 80.9659 82.692 78.8465C82.692 76.7261 80.9666 74.9996 78.8462 74.9996Z" fill="#E99531"/>
<path id="Vector_9" d="M24.9998 55.769H11.5387C10.4768 55.769 9.61523 54.9096 9.61523 53.8466V34.615C9.61523 33.552 10.4768 32.6926 11.5387 32.6926H24.9998C26.0617 32.6926 26.9233 33.552 26.9233 34.615V53.8466C26.9233 54.9096 26.0617 55.769 24.9998 55.769ZM13.4611 51.9231H23.0774V36.5385H13.4611V51.9231Z" fill="#E99531"/>
<path id="Vector_10" d="M30.7694 67.3078H17.3083C16.2464 67.3078 15.3848 66.4473 15.3848 65.3843V46.1538C15.3848 45.0909 16.2464 44.2303 17.3083 44.2303H30.7694C31.8312 44.2303 32.6929 45.0909 32.6929 46.1538V65.3843C32.6929 66.4473 31.8312 67.3078 30.7694 67.3078ZM19.2306 63.4619H28.8459V48.0773H19.2306V63.4619Z" fill="#E99531"/>
<path id="Vector_11" d="M82.6922 55.769H69.2311C68.1681 55.769 67.3076 54.9096 67.3076 53.8466V34.615C67.3076 33.552 68.1681 32.6926 69.2311 32.6926H82.6922C83.7541 32.6926 84.6157 33.552 84.6157 34.615V53.8466C84.6157 54.9096 83.7541 55.769 82.6922 55.769ZM71.1535 51.9231H80.7687V36.5385H71.1535V51.9231Z" fill="#E99531"/>
<path id="Vector_12" d="M88.4618 67.3078H74.9995C73.9377 67.3078 73.0771 66.4473 73.0771 65.3843V46.1538C73.0771 45.0909 73.9377 44.2303 74.9995 44.2303H88.4618C89.5236 44.2303 90.3841 45.0909 90.3841 46.1538V65.3843C90.3841 66.4473 89.5236 67.3078 88.4618 67.3078ZM76.923 63.4619H86.5383V48.0773H76.923V63.4619Z" fill="#E99531"/>
</g>
<defs>
<clipPath id="clip0_230_4299">
<rect width="100" height="100" fill="white"/>
</clipPath>
</defs>
</svg>
