<svg width="690" height="450" viewBox="0 0 690 450" fill="none" xmlns="http://www.w3.org/2000/svg">
<g filter="url(#filter0_b_187_2681)">
<g clip-path="url(#clip0_187_2681)">
<rect width="690" height="450" rx="8" fill="#1E1F20" fill-opacity="0.3"/>
<line x1="4.37114e-08" y1="224.5" x2="690" y2="224.5" stroke="#242424"/>
<line x1="345.5" y1="-2.18557e-08" x2="345.5" y2="450" stroke="#242424"/>
<rect x="183.831" y="288.577" width="6.81019" height="26.6931" rx="2" fill="#B05343"/>
<line x1="187.248" y1="282.105" x2="187.248" y2="317.677" stroke="#B05343"/>
<rect x="382.285" y="372.221" width="6.81019" height="26.6931" rx="2" fill="#E99531"/>
<line x1="385.707" y1="362.864" x2="385.707" y2="401.32" stroke="#E99531"/>
<rect x="685.829" y="101.362" width="6.81019" height="145.172" rx="2" fill="#E99531"/>
<line x1="689.251" y1="91.7473" x2="689.251" y2="255.186" stroke="#E99531"/>
<rect x="55.4102" y="365.748" width="6.81019" height="61.5299" rx="2" fill="#E99531"/>
<line x1="58.832" y1="359.98" x2="58.832" y2="430.162" stroke="#E99531"/>
<rect x="452.348" y="315.755" width="6.81019" height="61.5299" rx="2" fill="#E99531"/>
<line x1="455.765" y1="309.987" x2="455.765" y2="380.169" stroke="#E99531"/>
<rect x="32.0566" y="404.908" width="6.81019" height="26.6931" rx="2" fill="#E99531"/>
<line x1="35.4736" y1="363.825" x2="35.4736" y2="434.008" stroke="#E99531"/>
<rect x="428.993" y="354.914" width="6.81019" height="26.6931" rx="2" fill="#E99531"/>
<line x1="432.41" y1="313.832" x2="432.41" y2="384.014" stroke="#E99531"/>
<rect x="90.4307" y="352.03" width="6.81019" height="26.6931" rx="2" fill="#E99531"/>
<line x1="93.8525" y1="342.673" x2="93.8525" y2="381.129" stroke="#E99531"/>
<rect x="487.367" y="302.038" width="6.81019" height="26.6931" rx="2" fill="#E99531"/>
<line x1="490.784" y1="292.681" x2="490.784" y2="331.137" stroke="#E99531"/>
<rect x="545.736" y="303" width="6.81019" height="26.6931" rx="2" fill="#E99531"/>
<line x1="549.158" y1="293.643" x2="549.158" y2="332.099" stroke="#E99531"/>
<rect x="557.414" y="295.309" width="6.81019" height="26.6931" rx="2" fill="#E99531"/>
<line x1="560.835" y1="285.952" x2="560.835" y2="324.408" stroke="#E99531"/>
<rect x="569.091" y="311.652" width="6.81019" height="26.6931" rx="2" fill="#E99531"/>
<line x1="572.513" y1="302.295" x2="572.513" y2="340.752" stroke="#E99531"/>
<rect x="580.757" y="324.151" width="6.81019" height="26.6931" rx="2" fill="#E99531"/>
<line x1="584.179" y1="314.794" x2="584.179" y2="353.25" stroke="#E99531"/>
<rect x="592.434" y="311.652" width="6.81019" height="26.6931" rx="2" fill="#E99531"/>
<line x1="595.851" y1="302.295" x2="595.851" y2="340.752" stroke="#E99531"/>
<rect x="604.11" y="301.077" width="6.81019" height="26.6931" rx="2" fill="#E99531"/>
<line x1="607.527" y1="291.72" x2="607.527" y2="330.176" stroke="#E99531"/>
<rect x="615.789" y="309.73" width="6.81019" height="26.6931" rx="2" fill="#E99531"/>
<line x1="619.211" y1="300.373" x2="619.211" y2="338.829" stroke="#E99531"/>
<rect x="218.856" y="296.27" width="6.81019" height="26.6931" rx="2" fill="#B05343"/>
<line x1="222.278" y1="294.605" x2="222.278" y2="330.177" stroke="#B05343"/>
<rect x="277.219" y="345.268" width="6.81019" height="56.9934" rx="2" fill="#B05343"/>
<line x1="280.641" y1="341.713" x2="280.641" y2="417.664" stroke="#B05343"/>
<rect x="230.533" y="303.24" width="6.81019" height="15.1501" rx="2" fill="#B05343"/>
<line x1="233.955" y1="302.295" x2="233.955" y2="322.485" stroke="#B05343"/>
<rect x="288.896" y="398.436" width="6.81019" height="50.9545" rx="2" fill="#B05343"/>
<line x1="292.312" y1="426.317" x2="292.312" y2="461.889" stroke="#B05343"/>
<rect x="242.199" y="309.009" width="6.81019" height="15.1501" rx="2" fill="#B05343"/>
<line x1="245.62" y1="308.064" x2="245.62" y2="328.254" stroke="#B05343"/>
<rect x="347.27" y="431.107" width="6.81019" height="15.1501" rx="2" fill="#E99531"/>
<line x1="350.687" y1="424.394" x2="350.687" y2="444.584" stroke="#E99531"/>
<rect x="125.461" y="315.739" width="6.81019" height="15.1501" rx="2" fill="#E99531"/>
<line x1="128.878" y1="309.026" x2="128.878" y2="329.215" stroke="#E99531"/>
<rect x="650.809" y="265.745" width="6.81019" height="15.1501" rx="2" fill="#E99531"/>
<line x1="654.226" y1="259.032" x2="654.226" y2="279.222" stroke="#E99531"/>
<rect x="43.7334" y="392.652" width="6.81019" height="15.1501" rx="2" fill="#E99531"/>
<line x1="47.1553" y1="385.938" x2="47.1553" y2="406.128" stroke="#E99531"/>
<rect x="440.67" y="342.658" width="6.81019" height="15.1501" rx="2" fill="#E99531"/>
<line x1="444.092" y1="335.945" x2="444.092" y2="356.135" stroke="#E99531"/>
<rect x="78.7637" y="352.272" width="6.81019" height="15.1501" rx="2" fill="#E99531"/>
<line x1="82.1855" y1="345.559" x2="82.1855" y2="365.748" stroke="#E99531"/>
<rect x="475.689" y="302.278" width="6.81019" height="15.1501" rx="2" fill="#E99531"/>
<line x1="479.111" y1="295.565" x2="479.111" y2="315.755" stroke="#E99531"/>
<rect x="358.942" y="394.332" width="6.81019" height="38.4669" rx="2" fill="#E99531"/>
<line x1="362.364" y1="377.286" x2="362.364" y2="428.548" stroke="#E99531"/>
<rect x="102.096" y="340.493" width="6.81019" height="38.4669" rx="2" fill="#E99531"/>
<line x1="105.518" y1="323.448" x2="105.518" y2="374.71" stroke="#E99531"/>
<rect x="499.04" y="290.499" width="6.81019" height="38.4669" rx="2" fill="#E99531"/>
<line x1="502.462" y1="273.453" x2="502.462" y2="324.715" stroke="#E99531"/>
<rect x="510.711" y="307.804" width="6.81019" height="38.4669" rx="2" fill="#E99531"/>
<line x1="514.128" y1="290.759" x2="514.128" y2="342.021" stroke="#E99531"/>
<rect x="522.389" y="302.642" width="6.81019" height="22.4783" rx="2" fill="#E99531"/>
<line x1="525.811" y1="292.681" x2="525.811" y2="322.636" stroke="#E99531"/>
<rect x="534.065" y="293.029" width="6.81019" height="22.4783" rx="2" fill="#E99531"/>
<line x1="537.487" y1="283.068" x2="537.487" y2="313.023" stroke="#E99531"/>
<rect x="67.0762" y="362.604" width="6.81019" height="38.4669" rx="2" fill="#E99531"/>
<line x1="70.498" y1="345.559" x2="70.498" y2="396.821" stroke="#E99531"/>
<rect x="464.021" y="312.611" width="6.81019" height="38.4669" rx="2" fill="#E99531"/>
<line x1="467.438" y1="295.565" x2="467.438" y2="346.827" stroke="#E99531"/>
<rect x="370.619" y="351.135" width="6.81019" height="45.1289" rx="2" fill="#E99531"/>
<line x1="374.041" y1="331.138" x2="374.041" y2="391.278" stroke="#E99531"/>
<rect x="113.778" y="316.525" width="6.81019" height="45.1289" rx="2" fill="#E99531"/>
<line x1="117.2" y1="296.527" x2="117.2" y2="356.667" stroke="#E99531"/>
<rect x="639.136" y="266.533" width="6.81019" height="45.1289" rx="2" fill="#E99531"/>
<line x1="642.558" y1="246.535" x2="642.558" y2="306.675" stroke="#E99531"/>
<rect x="253.876" y="318.264" width="6.81019" height="9.37866" rx="2" fill="#B05343"/>
<line x1="257.298" y1="317.679" x2="257.298" y2="330.177" stroke="#B05343"/>
<rect x="300.567" y="449.975" width="6.81019" height="9.37866" rx="2" fill="#E99531"/>
<line x1="303.989" y1="449.39" x2="303.989" y2="461.889" stroke="#E99531"/>
<rect x="148.804" y="276.485" width="6.81019" height="33.186" rx="2" fill="#E99531"/>
<line x1="152.221" y1="274.415" x2="152.221" y2="318.64" stroke="#E99531"/>
<rect x="160.287" y="267.101" width="6.81019" height="33.186" rx="2" fill="#E99531"/>
<line x1="163.704" y1="265.031" x2="163.704" y2="309.256" stroke="#E99531"/>
<rect x="674.156" y="226.491" width="6.81019" height="33.186" rx="2" fill="#E99531"/>
<line x1="677.578" y1="224.421" x2="677.578" y2="268.646" stroke="#E99531"/>
<rect x="312.25" y="449.796" width="6.81019" height="6.49292" rx="2" fill="#E99531"/>
<line x1="315.672" y1="440.738" x2="315.672" y2="456.121" stroke="#E99531"/>
<rect x="627.459" y="307.507" width="6.81019" height="6.49292" rx="2" fill="#E99531"/>
<line x1="630.876" y1="298.449" x2="630.876" y2="313.832" stroke="#E99531"/>
<rect x="323.923" y="449.796" width="6.81019" height="6.49292" rx="2" fill="#E99531"/>
<line x1="327.345" y1="440.738" x2="327.345" y2="456.121" stroke="#E99531"/>
<rect x="137.133" y="314.238" width="6.81019" height="6.49292" rx="2" fill="#E99531"/>
<line x1="140.555" y1="305.18" x2="140.555" y2="320.562" stroke="#E99531"/>
<rect x="662.484" y="264.245" width="6.81019" height="6.49292" rx="2" fill="#E99531"/>
<line x1="665.906" y1="255.187" x2="665.906" y2="270.569" stroke="#E99531"/>
<rect x="-2.9707" y="381.13" width="6.81019" height="52.8773" rx="2" fill="#E99531"/>
<line x1="0.451172" y1="369.594" x2="0.451175" y2="444.583" stroke="#E99531"/>
<rect x="393.962" y="331.138" width="6.81019" height="52.8773" rx="2" fill="#E99531"/>
<line x1="397.384" y1="319.601" x2="397.384" y2="394.591" stroke="#E99531"/>
<rect x="8.70605" y="375.362" width="6.81019" height="21.1509" rx="2" fill="#E99531"/>
<line x1="12.123" y1="372.478" x2="12.123" y2="406.127" stroke="#E99531"/>
<rect x="405.64" y="325.37" width="6.81019" height="21.1509" rx="2" fill="#E99531"/>
<line x1="409.062" y1="322.485" x2="409.062" y2="356.135" stroke="#E99531"/>
<rect x="20.3789" y="375.362" width="6.81019" height="42.3018" rx="2" fill="#E99531"/>
<line x1="23.8008" y1="375.362" x2="23.8008" y2="426.316" stroke="#E99531"/>
<rect x="417.322" y="325.37" width="6.81019" height="42.3018" rx="2" fill="#E99531"/>
<line x1="420.744" y1="325.37" x2="420.744" y2="376.324" stroke="#E99531"/>
<rect x="335.6" y="444.989" width="6.81019" height="6.49292" rx="2" fill="#E99531"/>
<line x1="339.021" y1="441.699" x2="339.021" y2="455.159" stroke="#E99531"/>
<rect x="265.553" y="320.484" width="6.81019" height="29.5788" rx="2" fill="#B05343"/>
<line x1="268.97" y1="318.639" x2="268.97" y2="361.903" stroke="#B05343"/>
<rect x="172.392" y="252.148" width="6.81019" height="26.6931" rx="2" fill="#B05343"/>
<line x1="175.809" y1="245.677" x2="175.809" y2="281.249" stroke="#B05343"/>
<rect x="207.174" y="310.434" width="6.81019" height="11.0562" rx="2" fill="#B05343"/>
<line x1="210.591" y1="303.258" x2="210.591" y2="325.37" stroke="#B05343"/>
<rect x="195.496" y="288.069" width="6.81019" height="25.4772" rx="2" fill="#B05343"/>
<line x1="198.918" y1="271.531" x2="198.918" y2="322.486" stroke="#B05343"/>
<g filter="url(#filter1_f_187_2681)">
<rect x="183.831" y="288.577" width="6.81019" height="26.6931" rx="2" fill="#B05343"/>
<line x1="187.248" y1="282.105" x2="187.248" y2="317.677" stroke="#B05343"/>
<rect x="382.285" y="372.221" width="6.81019" height="26.6931" rx="2" fill="#E99531"/>
<line x1="385.707" y1="362.864" x2="385.707" y2="401.32" stroke="#E99531"/>
<rect x="685.829" y="101.362" width="6.81019" height="145.172" rx="2" fill="#E99531"/>
<line x1="689.251" y1="91.7473" x2="689.251" y2="255.186" stroke="#E99531"/>
<rect x="55.4102" y="365.748" width="6.81019" height="61.5299" rx="2" fill="#E99531"/>
<line x1="58.832" y1="359.98" x2="58.832" y2="430.162" stroke="#E99531"/>
<rect x="452.348" y="315.755" width="6.81019" height="61.5299" rx="2" fill="#E99531"/>
<line x1="455.765" y1="309.987" x2="455.765" y2="380.169" stroke="#E99531"/>
<rect x="32.0566" y="404.908" width="6.81019" height="26.6931" rx="2" fill="#E99531"/>
<line x1="35.4736" y1="363.825" x2="35.4736" y2="434.008" stroke="#E99531"/>
<rect x="428.993" y="354.914" width="6.81019" height="26.6931" rx="2" fill="#E99531"/>
<line x1="432.41" y1="313.832" x2="432.41" y2="384.014" stroke="#E99531"/>
<rect x="90.4307" y="352.03" width="6.81019" height="26.6931" rx="2" fill="#E99531"/>
<line x1="93.8525" y1="342.673" x2="93.8525" y2="381.129" stroke="#E99531"/>
<rect x="487.367" y="302.038" width="6.81019" height="26.6931" rx="2" fill="#E99531"/>
<line x1="490.784" y1="292.681" x2="490.784" y2="331.137" stroke="#E99531"/>
<rect x="545.736" y="303" width="6.81019" height="26.6931" rx="2" fill="#E99531"/>
<line x1="549.158" y1="293.643" x2="549.158" y2="332.099" stroke="#E99531"/>
<rect x="557.414" y="295.309" width="6.81019" height="26.6931" rx="2" fill="#E99531"/>
<line x1="560.835" y1="285.952" x2="560.835" y2="324.408" stroke="#E99531"/>
<rect x="569.091" y="311.652" width="6.81019" height="26.6931" rx="2" fill="#E99531"/>
<line x1="572.513" y1="302.295" x2="572.513" y2="340.752" stroke="#E99531"/>
<rect x="580.757" y="324.151" width="6.81019" height="26.6931" rx="2" fill="#E99531"/>
<line x1="584.179" y1="314.794" x2="584.179" y2="353.25" stroke="#E99531"/>
<rect x="592.434" y="311.652" width="6.81019" height="26.6931" rx="2" fill="#E99531"/>
<line x1="595.851" y1="302.295" x2="595.851" y2="340.752" stroke="#E99531"/>
<rect x="604.11" y="301.077" width="6.81019" height="26.6931" rx="2" fill="#E99531"/>
<line x1="607.527" y1="291.72" x2="607.527" y2="330.176" stroke="#E99531"/>
<rect x="615.789" y="309.73" width="6.81019" height="26.6931" rx="2" fill="#E99531"/>
<line x1="619.211" y1="300.373" x2="619.211" y2="338.829" stroke="#E99531"/>
<rect x="218.856" y="296.27" width="6.81019" height="26.6931" rx="2" fill="#B05343"/>
<line x1="222.278" y1="294.605" x2="222.278" y2="330.177" stroke="#B05343"/>
<rect x="277.219" y="345.268" width="6.81019" height="56.9934" rx="2" fill="#B05343"/>
<line x1="280.641" y1="341.713" x2="280.641" y2="417.664" stroke="#B05343"/>
<rect x="230.533" y="303.24" width="6.81019" height="15.1501" rx="2" fill="#B05343"/>
<line x1="233.955" y1="302.295" x2="233.955" y2="322.485" stroke="#B05343"/>
<rect x="288.896" y="398.436" width="6.81019" height="50.9545" rx="2" fill="#B05343"/>
<line x1="292.312" y1="426.317" x2="292.312" y2="461.889" stroke="#B05343"/>
<rect x="242.199" y="309.009" width="6.81019" height="15.1501" rx="2" fill="#B05343"/>
<line x1="245.62" y1="308.064" x2="245.62" y2="328.254" stroke="#B05343"/>
<rect x="347.27" y="431.107" width="6.81019" height="15.1501" rx="2" fill="#E99531"/>
<line x1="350.687" y1="424.394" x2="350.687" y2="444.584" stroke="#E99531"/>
<rect x="125.461" y="315.739" width="6.81019" height="15.1501" rx="2" fill="#E99531"/>
<line x1="128.878" y1="309.026" x2="128.878" y2="329.215" stroke="#E99531"/>
<rect x="650.809" y="265.745" width="6.81019" height="15.1501" rx="2" fill="#E99531"/>
<line x1="654.226" y1="259.032" x2="654.226" y2="279.222" stroke="#E99531"/>
<rect x="43.7334" y="392.652" width="6.81019" height="15.1501" rx="2" fill="#E99531"/>
<line x1="47.1553" y1="385.938" x2="47.1553" y2="406.128" stroke="#E99531"/>
<rect x="440.67" y="342.658" width="6.81019" height="15.1501" rx="2" fill="#E99531"/>
<line x1="444.092" y1="335.945" x2="444.092" y2="356.135" stroke="#E99531"/>
<rect x="78.7637" y="352.272" width="6.81019" height="15.1501" rx="2" fill="#E99531"/>
<line x1="82.1855" y1="345.559" x2="82.1855" y2="365.748" stroke="#E99531"/>
<rect x="475.689" y="302.278" width="6.81019" height="15.1501" rx="2" fill="#E99531"/>
<line x1="479.111" y1="295.565" x2="479.111" y2="315.755" stroke="#E99531"/>
<rect x="358.942" y="394.332" width="6.81019" height="38.4669" rx="2" fill="#E99531"/>
<line x1="362.364" y1="377.286" x2="362.364" y2="428.548" stroke="#E99531"/>
<rect x="102.096" y="340.493" width="6.81019" height="38.4669" rx="2" fill="#E99531"/>
<line x1="105.518" y1="323.448" x2="105.518" y2="374.71" stroke="#E99531"/>
<rect x="499.04" y="290.499" width="6.81019" height="38.4669" rx="2" fill="#E99531"/>
<line x1="502.462" y1="273.453" x2="502.462" y2="324.715" stroke="#E99531"/>
<rect x="510.711" y="307.804" width="6.81019" height="38.4669" rx="2" fill="#E99531"/>
<line x1="514.128" y1="290.759" x2="514.128" y2="342.021" stroke="#E99531"/>
<rect x="522.389" y="302.642" width="6.81019" height="22.4783" rx="2" fill="#E99531"/>
<line x1="525.811" y1="292.681" x2="525.811" y2="322.636" stroke="#E99531"/>
<rect x="534.065" y="293.029" width="6.81019" height="22.4783" rx="2" fill="#E99531"/>
<line x1="537.487" y1="283.068" x2="537.487" y2="313.023" stroke="#E99531"/>
<rect x="67.0762" y="362.604" width="6.81019" height="38.4669" rx="2" fill="#E99531"/>
<line x1="70.498" y1="345.559" x2="70.498" y2="396.821" stroke="#E99531"/>
<rect x="464.021" y="312.611" width="6.81019" height="38.4669" rx="2" fill="#E99531"/>
<line x1="467.438" y1="295.565" x2="467.438" y2="346.827" stroke="#E99531"/>
<rect x="370.619" y="351.135" width="6.81019" height="45.1289" rx="2" fill="#E99531"/>
<line x1="374.041" y1="331.138" x2="374.041" y2="391.278" stroke="#E99531"/>
<rect x="113.778" y="316.525" width="6.81019" height="45.1289" rx="2" fill="#E99531"/>
<line x1="117.2" y1="296.527" x2="117.2" y2="356.667" stroke="#E99531"/>
<rect x="639.136" y="266.533" width="6.81019" height="45.1289" rx="2" fill="#E99531"/>
<line x1="642.558" y1="246.535" x2="642.558" y2="306.675" stroke="#E99531"/>
<rect x="253.876" y="318.264" width="6.81019" height="9.37866" rx="2" fill="#B05343"/>
<line x1="257.298" y1="317.679" x2="257.298" y2="330.177" stroke="#B05343"/>
<rect x="300.567" y="449.975" width="6.81019" height="9.37866" rx="2" fill="#E99531"/>
<line x1="303.989" y1="449.39" x2="303.989" y2="461.889" stroke="#E99531"/>
<rect x="148.804" y="276.485" width="6.81019" height="33.186" rx="2" fill="#E99531"/>
<line x1="152.221" y1="274.415" x2="152.221" y2="318.64" stroke="#E99531"/>
<rect x="160.287" y="267.101" width="6.81019" height="33.186" rx="2" fill="#E99531"/>
<line x1="163.704" y1="265.031" x2="163.704" y2="309.256" stroke="#E99531"/>
<rect x="674.156" y="226.491" width="6.81019" height="33.186" rx="2" fill="#E99531"/>
<line x1="677.578" y1="224.421" x2="677.578" y2="268.646" stroke="#E99531"/>
<rect x="312.25" y="449.796" width="6.81019" height="6.49292" rx="2" fill="#E99531"/>
<line x1="315.672" y1="440.738" x2="315.672" y2="456.121" stroke="#E99531"/>
<rect x="627.459" y="307.507" width="6.81019" height="6.49292" rx="2" fill="#E99531"/>
<line x1="630.876" y1="298.449" x2="630.876" y2="313.832" stroke="#E99531"/>
<rect x="323.923" y="449.796" width="6.81019" height="6.49292" rx="2" fill="#E99531"/>
<line x1="327.345" y1="440.738" x2="327.345" y2="456.121" stroke="#E99531"/>
<rect x="137.133" y="314.238" width="6.81019" height="6.49292" rx="2" fill="#E99531"/>
<line x1="140.555" y1="305.18" x2="140.555" y2="320.562" stroke="#E99531"/>
<rect x="662.484" y="264.245" width="6.81019" height="6.49292" rx="2" fill="#E99531"/>
<line x1="665.906" y1="255.187" x2="665.906" y2="270.569" stroke="#E99531"/>
<rect x="-2.9707" y="381.13" width="6.81019" height="52.8773" rx="2" fill="#E99531"/>
<line x1="0.451172" y1="369.594" x2="0.451175" y2="444.583" stroke="#E99531"/>
<rect x="393.962" y="331.138" width="6.81019" height="52.8773" rx="2" fill="#E99531"/>
<line x1="397.384" y1="319.601" x2="397.384" y2="394.591" stroke="#E99531"/>
<rect x="8.70605" y="375.362" width="6.81019" height="21.1509" rx="2" fill="#E99531"/>
<line x1="12.123" y1="372.478" x2="12.123" y2="406.127" stroke="#E99531"/>
<rect x="405.64" y="325.37" width="6.81019" height="21.1509" rx="2" fill="#E99531"/>
<line x1="409.062" y1="322.485" x2="409.062" y2="356.135" stroke="#E99531"/>
<rect x="20.3789" y="375.362" width="6.81019" height="42.3018" rx="2" fill="#E99531"/>
<line x1="23.8008" y1="375.362" x2="23.8008" y2="426.316" stroke="#E99531"/>
<rect x="417.322" y="325.37" width="6.81019" height="42.3018" rx="2" fill="#E99531"/>
<line x1="420.744" y1="325.37" x2="420.744" y2="376.324" stroke="#E99531"/>
<rect x="335.6" y="444.989" width="6.81019" height="6.49292" rx="2" fill="#E99531"/>
<line x1="339.021" y1="441.699" x2="339.021" y2="455.159" stroke="#E99531"/>
<rect x="265.553" y="320.484" width="6.81019" height="29.5788" rx="2" fill="#B05343"/>
<line x1="268.97" y1="318.639" x2="268.97" y2="361.903" stroke="#B05343"/>
<rect x="172.392" y="252.148" width="6.81019" height="26.6931" rx="2" fill="#B05343"/>
<line x1="175.809" y1="245.677" x2="175.809" y2="281.249" stroke="#B05343"/>
<rect x="207.174" y="310.434" width="6.81019" height="11.0562" rx="2" fill="#B05343"/>
<line x1="210.591" y1="303.258" x2="210.591" y2="325.37" stroke="#B05343"/>
<rect x="195.496" y="288.069" width="6.81019" height="25.4772" rx="2" fill="#B05343"/>
<line x1="198.918" y1="271.531" x2="198.918" y2="322.486" stroke="#B05343"/>
</g>
</g>
</g>
<defs>
<filter id="filter0_b_187_2681" x="-30" y="-30" width="750" height="510" filterUnits="userSpaceOnUse" color-interpolation-filters="sRGB">
<feFlood flood-opacity="0" result="BackgroundImageFix"/>
<feGaussianBlur in="BackgroundImageFix" stdDeviation="15"/>
<feComposite in2="SourceAlpha" operator="in" result="effect1_backgroundBlur_187_2681"/>
<feBlend mode="normal" in="SourceGraphic" in2="effect1_backgroundBlur_187_2681" result="shape"/>
</filter>
<filter id="filter1_f_187_2681" x="-570" y="-94" width="1806.33" height="666.647" filterUnits="userSpaceOnUse" color-interpolation-filters="sRGB">
<feFlood flood-opacity="0" result="BackgroundImageFix"/>
<feBlend mode="normal" in="SourceGraphic" in2="BackgroundImageFix" result="shape"/>
<feGaussianBlur stdDeviation="15" result="effect1_foregroundBlur_187_2681"/>
</filter>
<clipPath id="clip0_187_2681">
<rect width="690" height="450" rx="8" fill="white"/>
</clipPath>
</defs>
</svg>
