<svg width="700" height="450" viewBox="0 0 700 450" fill="none" xmlns="http://www.w3.org/2000/svg">
<g clip-path="url(#clip0_647_139)">
<mask id="mask0_647_139" style="mask-type:luminance" maskUnits="userSpaceOnUse" x="0" y="0" width="700" height="450">
<path d="M692 0H8C3.58172 0 0 3.58172 0 8V442C0 446.418 3.58172 450 8 450H692C696.418 450 700 446.418 700 442V8C700 3.58172 696.418 0 692 0Z" fill="white"/>
</mask>
<g mask="url(#mask0_647_139)">
<path d="M692 0H8C3.58172 0 0 3.58172 0 8V442C0 446.418 3.58172 450 8 450H692C696.418 450 700 446.418 700 442V8C700 3.58172 696.418 0 692 0Z" fill="#1E1F20" fill-opacity="0.3"/>
<path d="M0 224.5H700" stroke="#242424"/>
<path d="M350.5 0V450" stroke="#242424"/>
<path d="M199.708 237.372H195.933C194.828 237.372 193.933 238.268 193.933 239.372V264.472C193.933 265.577 194.828 266.472 195.933 266.472H199.708C200.813 266.472 201.708 265.577 201.708 264.472V239.372C201.708 238.268 200.813 237.372 199.708 237.372Z" fill="#B05343"/>
<path d="M197.763 230.316V269.096" stroke="#B05343"/>
<path d="M426.299 328.558H422.523C421.419 328.558 420.523 329.454 420.523 330.558V355.658C420.523 356.763 421.419 357.658 422.523 357.658H426.299C427.404 357.658 428.299 356.763 428.299 355.658V330.558C428.299 329.454 427.404 328.558 426.299 328.558Z" fill="#E99531"/>
<path d="M424.359 318.358V360.282" stroke="#E99531"/>
<path d="M53.0804 321.502H49.3047C48.2001 321.502 47.3047 322.397 47.3047 323.502V386.58C47.3047 387.685 48.2001 388.58 49.3047 388.58H53.0804C54.185 388.58 55.0804 387.685 55.0804 386.58V323.502C55.0804 322.397 54.185 321.502 53.0804 321.502Z" fill="#E99531"/>
<path d="M51.1406 315.213V391.725" stroke="#E99531"/>
<path d="M506.293 267.001H502.518C501.413 267.001 500.518 267.896 500.518 269.001V332.079C500.518 333.184 501.413 334.079 502.518 334.079H506.293C507.398 334.079 508.293 333.184 508.293 332.079V269.001C508.293 267.896 507.398 267.001 506.293 267.001Z" fill="#E99531"/>
<path d="M504.348 260.712V337.224" stroke="#E99531"/>
<path d="M26.4154 364.194H22.6396C21.5351 364.194 20.6396 365.09 20.6396 366.194V391.294C20.6396 392.399 21.5351 393.294 22.6396 393.294H26.4154C27.5199 393.294 28.4154 392.399 28.4154 391.294V366.194C28.4154 365.09 27.5199 364.194 26.4154 364.194Z" fill="#E99531"/>
<path d="M24.4697 319.406V395.917" stroke="#E99531"/>
<path d="M479.627 309.691H475.852C474.747 309.691 473.852 310.586 473.852 311.691V336.791C473.852 337.896 474.747 338.791 475.852 338.791H479.627C480.732 338.791 481.627 337.896 481.627 336.791V311.691C481.627 310.586 480.732 309.691 479.627 309.691Z" fill="#E99531"/>
<path d="M477.684 264.904V341.415" stroke="#E99531"/>
<path d="M93.0658 306.546H89.29C88.1855 306.546 87.29 307.441 87.29 308.546V333.646C87.29 334.751 88.1855 335.646 89.29 335.646H93.0658C94.1703 335.646 95.0658 334.751 95.0658 333.646V308.546C95.0658 307.441 94.1703 306.546 93.0658 306.546Z" fill="#E99531"/>
<path d="M91.126 296.346V338.27" stroke="#E99531"/>
<path d="M546.278 252.046H542.502C541.397 252.046 540.502 252.941 540.502 254.046V279.146C540.502 280.251 541.397 281.146 542.502 281.146H546.278C547.382 281.146 548.278 280.251 548.278 279.146V254.046C548.278 252.941 547.382 252.046 546.278 252.046Z" fill="#E99531"/>
<path d="M544.334 241.846V283.77" stroke="#E99531"/>
<path d="M612.924 253.095H609.148C608.044 253.095 607.148 253.99 607.148 255.095V280.195C607.148 281.3 608.044 282.195 609.148 282.195H612.924C614.029 282.195 614.924 281.3 614.924 280.195V255.095C614.924 253.99 614.029 253.095 612.924 253.095Z" fill="#E99531"/>
<path d="M610.984 242.895V284.819" stroke="#E99531"/>
<path d="M626.258 244.71H622.482C621.378 244.71 620.482 245.605 620.482 246.71V271.81C620.482 272.915 621.378 273.81 622.482 273.81H626.258C627.363 273.81 628.258 272.915 628.258 271.81V246.71C628.258 245.605 627.363 244.71 626.258 244.71Z" fill="#E99531"/>
<path d="M624.316 234.51V276.434" stroke="#E99531"/>
<path d="M639.588 262.527H635.812C634.708 262.527 633.812 263.423 633.812 264.527V289.627C633.812 290.732 634.708 291.627 635.812 291.627H639.588C640.693 291.627 641.588 290.732 641.588 289.627V264.527C641.588 263.423 640.693 262.527 639.588 262.527Z" fill="#E99531"/>
<path d="M637.648 252.327V294.251" stroke="#E99531"/>
<path d="M652.909 276.153H649.133C648.028 276.153 647.133 277.049 647.133 278.153V303.253C647.133 304.358 648.028 305.253 649.133 305.253H652.909C654.013 305.253 654.909 304.358 654.909 303.253V278.153C654.909 277.049 654.013 276.153 652.909 276.153Z" fill="#E99531"/>
<path d="M650.969 265.953V307.877" stroke="#E99531"/>
<path d="M666.241 262.528H662.465C661.36 262.528 660.465 263.424 660.465 264.528V289.628C660.465 290.733 661.36 291.628 662.465 291.628H666.241C667.345 291.628 668.241 290.733 668.241 289.628V264.528C668.241 263.424 667.345 262.528 666.241 262.528Z" fill="#E99531"/>
<path d="M664.297 252.327V294.251" stroke="#E99531"/>
<path d="M679.575 250.998H675.799C674.694 250.998 673.799 251.893 673.799 252.998V278.098C673.799 279.203 674.694 280.098 675.799 280.098H679.575C680.679 280.098 681.575 279.203 681.575 278.098V252.998C681.575 251.893 680.679 250.998 679.575 250.998Z" fill="#E99531"/>
<path d="M677.629 240.798V282.722" stroke="#E99531"/>
<path d="M692.909 260.432H689.133C688.028 260.432 687.133 261.328 687.133 262.432V287.532C687.133 288.637 688.028 289.532 689.133 289.532H692.909C694.013 289.532 694.909 288.637 694.909 287.532V262.432C694.909 261.328 694.013 260.432 692.909 260.432Z" fill="#E99531"/>
<path d="M690.969 250.232V292.156" stroke="#E99531"/>
<path d="M239.7 245.758H235.924C234.819 245.758 233.924 246.653 233.924 247.758V272.858C233.924 273.963 234.819 274.858 235.924 274.858H239.7C240.804 274.858 241.7 273.963 241.7 272.858V247.758C241.7 246.653 240.804 245.758 239.7 245.758Z" fill="#B05343"/>
<path d="M237.76 243.943V282.723" stroke="#B05343"/>
<path d="M306.336 299.175H302.561C301.456 299.175 300.561 300.07 300.561 301.175V359.308C300.561 360.413 301.456 361.308 302.561 361.308H306.336C307.441 361.308 308.336 360.413 308.336 359.308V301.175C308.336 300.07 307.441 299.175 306.336 299.175Z" fill="#B05343"/>
<path d="M304.396 295.299V378.1" stroke="#B05343"/>
<path d="M253.032 253.357H249.256C248.151 253.357 247.256 254.252 247.256 255.357V267.873C247.256 268.978 248.151 269.873 249.256 269.873H253.032C254.136 269.873 255.032 268.978 255.032 267.873V255.357C255.032 254.252 254.136 253.357 253.032 253.357Z" fill="#B05343"/>
<path d="M251.092 252.327V274.337" stroke="#B05343"/>
<path d="M319.668 357.138H315.893C314.788 357.138 313.893 358.033 313.893 359.138V410.687C313.893 411.792 314.788 412.687 315.893 412.687H319.668C320.773 412.687 321.668 411.792 321.668 410.687V359.138C321.668 358.033 320.773 357.138 319.668 357.138Z" fill="#B05343"/>
<path d="M317.724 387.533V426.313" stroke="#B05343"/>
<path d="M266.351 259.646H262.575C261.471 259.646 260.575 260.541 260.575 261.646V274.162C260.575 275.267 261.471 276.162 262.575 276.162H266.351C267.455 276.162 268.351 275.267 268.351 274.162V261.646C268.351 260.541 267.455 259.646 266.351 259.646Z" fill="#B05343"/>
<path d="M264.411 258.616V280.626" stroke="#B05343"/>
<path d="M386.319 392.755H382.543C381.438 392.755 380.543 393.65 380.543 394.755V407.271C380.543 408.376 381.438 409.271 382.543 409.271H386.319C387.423 409.271 388.319 408.376 388.319 407.271V394.755C388.319 393.65 387.423 392.755 386.319 392.755Z" fill="#E99531"/>
<path d="M384.373 385.436V407.447" stroke="#E99531"/>
<path d="M133.062 266.983H129.286C128.182 266.983 127.286 267.878 127.286 268.983V281.499C127.286 282.604 128.182 283.499 129.286 283.499H133.062C134.166 283.499 135.062 282.604 135.062 281.499V268.983C135.062 267.878 134.166 266.983 133.062 266.983Z" fill="#E99531"/>
<path d="M131.117 259.664V281.674" stroke="#E99531"/>
<path d="M39.7474 350.831H35.9717C34.8671 350.831 33.9717 351.726 33.9717 352.831V365.347C33.9717 366.452 34.8671 367.347 35.9717 367.347H39.7474C40.852 367.347 41.7474 366.452 41.7474 365.347V352.831C41.7474 351.726 40.852 350.831 39.7474 350.831Z" fill="#E99531"/>
<path d="M37.8076 343.513V365.523" stroke="#E99531"/>
<path d="M492.961 296.33H489.186C488.081 296.33 487.186 297.226 487.186 298.33V310.846C487.186 311.951 488.081 312.846 489.186 312.846H492.961C494.066 312.846 494.961 311.951 494.961 310.846V298.33C494.961 297.226 494.066 296.33 492.961 296.33Z" fill="#E99531"/>
<path d="M491.021 289.011V311.022" stroke="#E99531"/>
<path d="M79.7445 306.81H75.9688C74.8642 306.81 73.9688 307.705 73.9688 308.81V321.326C73.9688 322.431 74.8642 323.326 75.9688 323.326H79.7445C80.849 323.326 81.7445 322.431 81.7445 321.326V308.81C81.7445 307.705 80.849 306.81 79.7445 306.81Z" fill="#E99531"/>
<path d="M77.8047 299.492V321.502" stroke="#E99531"/>
<path d="M532.946 252.309H529.17C528.065 252.309 527.17 253.205 527.17 254.309V266.825C527.17 267.93 528.065 268.825 529.17 268.825H532.946C534.05 268.825 534.946 267.93 534.946 266.825V254.309C534.946 253.205 534.05 252.309 532.946 252.309Z" fill="#E99531"/>
<path d="M531.006 244.99V267" stroke="#E99531"/>
<path d="M399.647 352.663H395.871C394.767 352.663 393.871 353.559 393.871 354.663V392.599C393.871 393.703 394.767 394.599 395.871 394.599H399.647C400.751 394.599 401.647 393.703 401.647 392.599V354.663C401.647 353.559 400.751 352.663 399.647 352.663Z" fill="#E99531"/>
<path d="M397.707 334.08V389.965" stroke="#E99531"/>
<path d="M106.384 293.969H102.608C101.504 293.969 100.608 294.864 100.608 295.969V333.905C100.608 335.009 101.504 335.905 102.608 335.905H106.384C107.489 335.905 108.384 335.009 108.384 333.905V295.969C108.384 294.864 107.489 293.969 106.384 293.969Z" fill="#E99531"/>
<path d="M104.444 275.387V331.272" stroke="#E99531"/>
<path d="M559.606 239.466H555.83C554.726 239.466 553.83 240.361 553.83 241.466V279.402C553.83 280.506 554.726 281.402 555.83 281.402H559.606C560.71 281.402 561.606 280.506 561.606 279.402V241.466C561.606 240.361 560.71 239.466 559.606 239.466Z" fill="#E99531"/>
<path d="M557.666 220.884V276.769" stroke="#E99531"/>
<path d="M572.932 258.333H569.156C568.052 258.333 567.156 259.228 567.156 260.333V298.269C567.156 299.373 568.052 300.269 569.156 300.269H572.932C574.037 300.269 574.932 299.373 574.932 298.269V260.333C574.932 259.228 574.037 258.333 572.932 258.333Z" fill="#E99531"/>
<path d="M570.986 239.75V295.635" stroke="#E99531"/>
<path d="M586.266 252.705H582.49C581.386 252.705 580.49 253.601 580.49 254.705V275.21C580.49 276.315 581.386 277.21 582.49 277.21H586.266C587.37 277.21 588.266 276.315 588.266 275.21V254.705C588.266 253.601 587.37 252.705 586.266 252.705Z" fill="#E99531"/>
<path d="M584.326 241.846V274.502" stroke="#E99531"/>
<path d="M599.598 242.224H595.822C594.718 242.224 593.822 243.12 593.822 244.224V264.73C593.822 265.834 594.718 266.73 595.822 266.73H599.598C600.703 266.73 601.598 265.834 601.598 264.73V244.224C601.598 243.12 600.703 242.224 599.598 242.224Z" fill="#E99531"/>
<path d="M597.658 231.365V264.022" stroke="#E99531"/>
<path d="M66.3997 318.074H62.624C61.5195 318.074 60.624 318.969 60.624 320.074V358.01C60.624 359.114 61.5195 360.01 62.624 360.01H66.3997C67.5043 360.01 68.3997 359.114 68.3997 358.01V320.074C68.3997 318.969 67.5043 318.074 66.3997 318.074Z" fill="#E99531"/>
<path d="M64.46 299.492V355.376" stroke="#E99531"/>
<path d="M519.621 263.573H515.846C514.741 263.573 513.846 264.468 513.846 265.573V303.509C513.846 304.613 514.741 305.509 515.846 305.509H519.621C520.726 305.509 521.621 304.613 521.621 303.509V265.573C521.621 264.468 520.726 263.573 519.621 263.573Z" fill="#E99531"/>
<path d="M517.678 244.99V300.875" stroke="#E99531"/>
<path d="M412.979 305.572H409.203C408.099 305.572 407.203 306.467 407.203 307.572V352.771C407.203 353.875 408.099 354.771 409.203 354.771H412.979C414.083 354.771 414.979 353.875 414.979 352.771V307.572C414.979 306.467 414.083 305.572 412.979 305.572Z" fill="#E99531"/>
<path d="M411.039 283.77V349.334" stroke="#E99531"/>
<path d="M119.723 267.84H115.947C114.843 267.84 113.947 268.736 113.947 269.84V315.039C113.947 316.143 114.843 317.039 115.947 317.039H119.723C120.828 317.039 121.723 316.143 121.723 315.039V269.84C121.723 268.736 120.828 267.84 119.723 267.84Z" fill="#E99531"/>
<path d="M117.783 246.039V311.602" stroke="#E99531"/>
<path d="M279.684 269.735H275.908C274.804 269.735 273.908 270.63 273.908 271.735V277.959C273.908 279.064 274.804 279.959 275.908 279.959H279.684C280.788 279.959 281.684 279.064 281.684 277.959V271.735C281.684 270.63 280.788 269.735 279.684 269.735Z" fill="#B05343"/>
<path d="M277.744 269.098V282.723" stroke="#B05343"/>
<path d="M332.994 413.324H329.219C328.114 413.324 327.219 414.219 327.219 415.324V421.548C327.219 422.653 328.114 423.548 329.219 423.548H332.994C334.099 423.548 334.994 422.653 334.994 421.548V415.324C334.994 414.219 334.099 413.324 332.994 413.324Z" fill="#E99531"/>
<path d="M331.055 412.687V426.312" stroke="#E99531"/>
<path d="M159.714 224.189H155.938C154.834 224.189 153.938 225.084 153.938 226.189V258.368C153.938 259.472 154.834 260.368 155.938 260.368H159.714C160.819 260.368 161.714 259.472 161.714 258.368V226.189C161.714 225.084 160.819 224.189 159.714 224.189Z" fill="#E99531"/>
<path d="M157.77 221.933V270.146" stroke="#E99531"/>
<path d="M172.826 213.959H169.051C167.946 213.959 167.051 214.854 167.051 215.959V248.138C167.051 249.242 167.946 250.138 169.051 250.138H172.826C173.931 250.138 174.826 249.242 174.826 248.138V215.959C174.826 214.854 173.931 213.959 172.826 213.959Z" fill="#E99531"/>
<path d="M170.881 211.702V259.915" stroke="#E99531"/>
<path d="M346.333 413.129H342.558C341.453 413.129 340.558 414.024 340.558 415.129V418.207C340.558 419.312 341.453 420.207 342.558 420.207H346.333C347.438 420.207 348.333 419.312 348.333 418.207V415.129C348.333 414.024 347.438 413.129 346.333 413.129Z" fill="#E99531"/>
<path d="M344.395 403.254V420.024" stroke="#E99531"/>
<path d="M359.661 413.129H355.886C354.781 413.129 353.886 414.024 353.886 415.129V418.207C353.886 419.312 354.781 420.207 355.886 420.207H359.661C360.766 420.207 361.661 419.312 361.661 418.207V415.129C361.661 414.024 360.766 413.129 359.661 413.129Z" fill="#E99531"/>
<path d="M357.722 403.254V420.024" stroke="#E99531"/>
<path d="M146.389 265.346H142.613C141.509 265.346 140.613 266.241 140.613 267.346V270.424C140.613 271.529 141.509 272.424 142.613 272.424H146.389C147.494 272.424 148.389 271.529 148.389 270.424V267.346C148.389 266.241 147.494 265.346 146.389 265.346Z" fill="#E99531"/>
<path d="M144.449 255.471V272.241" stroke="#E99531"/>
<path d="M439.631 283.77H435.855C434.751 283.77 433.855 284.665 433.855 285.77V339.416C433.855 340.52 434.751 341.416 435.855 341.416H439.631C440.736 341.416 441.631 340.52 441.631 339.416V285.77C441.631 284.665 440.736 283.77 439.631 283.77Z" fill="#E99531"/>
<path d="M437.691 271.193V352.945" stroke="#E99531"/>
<path d="M-0.245765 331.983H-4.02148C-5.12605 331.983 -6.02148 332.878 -6.02148 333.983V353.041C-6.02148 354.146 -5.12605 355.041 -4.02148 355.041H-0.245765C0.858805 355.041 1.75424 354.146 1.75424 353.041V333.983C1.75424 332.878 0.858805 331.983 -0.245765 331.983Z" fill="#E99531"/>
<path d="M452.963 277.482H449.188C448.083 277.482 447.188 278.377 447.188 279.482V298.54C447.188 299.645 448.083 300.54 449.188 300.54H452.963C454.068 300.54 454.963 299.645 454.963 298.54V279.482C454.963 278.377 454.068 277.482 452.963 277.482Z" fill="#E99531"/>
<path d="M451.025 274.338V311.021" stroke="#E99531"/>
<path d="M13.0824 331.982H9.30664C8.20207 331.982 7.30664 332.877 7.30664 333.982V376.098C7.30664 377.203 8.20207 378.098 9.30664 378.098H13.0824C14.1869 378.098 15.0824 377.203 15.0824 376.098V333.982C15.0824 332.877 14.1869 331.982 13.0824 331.982Z" fill="#E99531"/>
<path d="M11.1426 331.983V387.532" stroke="#E99531"/>
<path d="M466.303 277.482H462.527C461.423 277.482 460.527 278.377 460.527 279.482V321.598C460.527 322.703 461.423 323.598 462.527 323.598H466.303C467.408 323.598 468.303 322.703 468.303 321.598V279.482C468.303 278.377 467.408 277.482 466.303 277.482Z" fill="#E99531"/>
<path d="M464.363 277.482V333.032" stroke="#E99531"/>
<path d="M372.994 407.888H369.219C368.114 407.888 367.219 408.783 367.219 409.888V412.966C367.219 414.071 368.114 414.966 369.219 414.966H372.994C374.099 414.966 374.994 414.071 374.994 412.966V409.888C374.994 408.783 374.099 407.888 372.994 407.888Z" fill="#E99531"/>
<path d="M371.055 404.302V418.975" stroke="#E99531"/>
<path d="M293.017 272.156H289.241C288.137 272.156 287.241 273.051 287.241 274.156V302.402C287.241 303.507 288.137 304.402 289.241 304.402H293.017C294.122 304.402 295.017 303.507 295.017 302.402V274.156C295.017 273.051 294.122 272.156 293.017 272.156Z" fill="#B05343"/>
<path d="M291.071 270.145V317.31" stroke="#B05343"/>
<path d="M186.647 197.658H182.871C181.767 197.658 180.871 198.553 180.871 199.658V224.758C180.871 225.863 181.767 226.758 182.871 226.758H186.647C187.751 226.758 188.647 225.863 188.647 224.758V199.658C188.647 198.553 187.751 197.658 186.647 197.658Z" fill="#B05343"/>
<path d="M184.701 190.603V229.382" stroke="#B05343"/>
<path d="M226.361 261.2H222.585C221.48 261.2 220.585 262.095 220.585 263.2V271.253C220.585 272.358 221.48 273.253 222.585 273.253H226.361C227.465 273.253 228.361 272.358 228.361 271.253V263.2C228.361 262.095 227.465 261.2 226.361 261.2Z" fill="#B05343"/>
<path d="M224.415 253.376V277.482" stroke="#B05343"/>
<path d="M213.028 236.818H209.252C208.147 236.818 207.252 237.713 207.252 238.818V262.593C207.252 263.697 208.147 264.593 209.252 264.593H213.028C214.132 264.593 215.028 263.697 215.028 262.593V238.818C215.028 237.713 214.132 236.818 213.028 236.818Z" fill="#B05343"/>
<path d="M211.088 218.788V274.338" stroke="#B05343"/>
<g filter="url(#filter0_f_647_139)">
<path d="M199.708 237.372H195.933C194.828 237.372 193.933 238.268 193.933 239.372V264.472C193.933 265.577 194.828 266.472 195.933 266.472H199.708C200.813 266.472 201.708 265.577 201.708 264.472V239.372C201.708 238.268 200.813 237.372 199.708 237.372Z" fill="#B05343"/>
<path d="M197.763 230.316V269.096" stroke="#B05343"/>
<path d="M426.299 328.558H422.523C421.419 328.558 420.523 329.454 420.523 330.558V355.658C420.523 356.763 421.419 357.658 422.523 357.658H426.299C427.404 357.658 428.299 356.763 428.299 355.658V330.558C428.299 329.454 427.404 328.558 426.299 328.558Z" fill="#E99531"/>
<path d="M424.359 318.358V360.282" stroke="#E99531"/>
<path d="M53.0804 321.502H49.3047C48.2001 321.502 47.3047 322.397 47.3047 323.502V386.58C47.3047 387.685 48.2001 388.58 49.3047 388.58H53.0804C54.185 388.58 55.0804 387.685 55.0804 386.58V323.502C55.0804 322.397 54.185 321.502 53.0804 321.502Z" fill="#E99531"/>
<path d="M51.1406 315.213V391.725" stroke="#E99531"/>
<path d="M506.293 267.001H502.518C501.413 267.001 500.518 267.896 500.518 269.001V332.079C500.518 333.184 501.413 334.079 502.518 334.079H506.293C507.398 334.079 508.293 333.184 508.293 332.079V269.001C508.293 267.896 507.398 267.001 506.293 267.001Z" fill="#E99531"/>
<path d="M504.348 260.712V337.224" stroke="#E99531"/>
<path d="M26.4154 364.194H22.6396C21.5351 364.194 20.6396 365.09 20.6396 366.194V391.294C20.6396 392.399 21.5351 393.294 22.6396 393.294H26.4154C27.5199 393.294 28.4154 392.399 28.4154 391.294V366.194C28.4154 365.09 27.5199 364.194 26.4154 364.194Z" fill="#E99531"/>
<path d="M24.4697 319.406V395.917" stroke="#E99531"/>
<path d="M479.627 309.691H475.852C474.747 309.691 473.852 310.586 473.852 311.691V336.791C473.852 337.896 474.747 338.791 475.852 338.791H479.627C480.732 338.791 481.627 337.896 481.627 336.791V311.691C481.627 310.586 480.732 309.691 479.627 309.691Z" fill="#E99531"/>
<path d="M477.684 264.904V341.415" stroke="#E99531"/>
<path d="M93.0658 306.546H89.29C88.1855 306.546 87.29 307.441 87.29 308.546V333.646C87.29 334.751 88.1855 335.646 89.29 335.646H93.0658C94.1703 335.646 95.0658 334.751 95.0658 333.646V308.546C95.0658 307.441 94.1703 306.546 93.0658 306.546Z" fill="#E99531"/>
<path d="M91.126 296.346V338.27" stroke="#E99531"/>
<path d="M546.278 252.046H542.502C541.397 252.046 540.502 252.942 540.502 254.046V279.146C540.502 280.251 541.397 281.146 542.502 281.146H546.278C547.382 281.146 548.278 280.251 548.278 279.146V254.046C548.278 252.942 547.382 252.046 546.278 252.046Z" fill="#E99531"/>
<path d="M544.334 241.846V283.77" stroke="#E99531"/>
<path d="M612.924 253.095H609.148C608.044 253.095 607.148 253.99 607.148 255.095V280.195C607.148 281.3 608.044 282.195 609.148 282.195H612.924C614.029 282.195 614.924 281.3 614.924 280.195V255.095C614.924 253.99 614.029 253.095 612.924 253.095Z" fill="#E99531"/>
<path d="M610.984 242.895V284.819" stroke="#E99531"/>
<path d="M626.258 244.71H622.482C621.378 244.71 620.482 245.605 620.482 246.71V271.81C620.482 272.915 621.378 273.81 622.482 273.81H626.258C627.363 273.81 628.258 272.915 628.258 271.81V246.71C628.258 245.605 627.363 244.71 626.258 244.71Z" fill="#E99531"/>
<path d="M624.316 234.51V276.434" stroke="#E99531"/>
<path d="M639.588 262.527H635.812C634.708 262.527 633.812 263.423 633.812 264.527V289.627C633.812 290.732 634.708 291.627 635.812 291.627H639.588C640.693 291.627 641.588 290.732 641.588 289.627V264.527C641.588 263.423 640.693 262.527 639.588 262.527Z" fill="#E99531"/>
<path d="M637.648 252.327V294.251" stroke="#E99531"/>
<path d="M652.909 276.153H649.133C648.028 276.153 647.133 277.049 647.133 278.153V303.253C647.133 304.358 648.028 305.253 649.133 305.253H652.909C654.013 305.253 654.909 304.358 654.909 303.253V278.153C654.909 277.049 654.013 276.153 652.909 276.153Z" fill="#E99531"/>
<path d="M650.969 265.953V307.877" stroke="#E99531"/>
<path d="M666.241 262.528H662.465C661.36 262.528 660.465 263.424 660.465 264.528V289.628C660.465 290.733 661.36 291.628 662.465 291.628H666.241C667.345 291.628 668.241 290.733 668.241 289.628V264.528C668.241 263.424 667.345 262.528 666.241 262.528Z" fill="#E99531"/>
<path d="M664.297 252.327V294.251" stroke="#E99531"/>
<path d="M679.575 250.998H675.799C674.694 250.998 673.799 251.893 673.799 252.998V278.098C673.799 279.203 674.694 280.098 675.799 280.098H679.575C680.679 280.098 681.575 279.203 681.575 278.098V252.998C681.575 251.893 680.679 250.998 679.575 250.998Z" fill="#E99531"/>
<path d="M677.629 240.798V282.722" stroke="#E99531"/>
<path d="M692.909 260.432H689.133C688.028 260.432 687.133 261.328 687.133 262.432V287.532C687.133 288.637 688.028 289.532 689.133 289.532H692.909C694.013 289.532 694.909 288.637 694.909 287.532V262.432C694.909 261.328 694.013 260.432 692.909 260.432Z" fill="#E99531"/>
<path d="M690.969 250.232V292.156" stroke="#E99531"/>
<path d="M239.7 245.758H235.924C234.819 245.758 233.924 246.653 233.924 247.758V272.858C233.924 273.963 234.819 274.858 235.924 274.858H239.7C240.804 274.858 241.7 273.963 241.7 272.858V247.758C241.7 246.653 240.804 245.758 239.7 245.758Z" fill="#B05343"/>
<path d="M237.76 243.943V282.723" stroke="#B05343"/>
<path d="M306.336 299.175H302.561C301.456 299.175 300.561 300.07 300.561 301.175V359.308C300.561 360.413 301.456 361.308 302.561 361.308H306.336C307.441 361.308 308.336 360.413 308.336 359.308V301.175C308.336 300.07 307.441 299.175 306.336 299.175Z" fill="#B05343"/>
<path d="M304.396 295.299V378.1" stroke="#B05343"/>
<path d="M253.032 253.357H249.256C248.151 253.357 247.256 254.252 247.256 255.357V267.873C247.256 268.978 248.151 269.873 249.256 269.873H253.032C254.136 269.873 255.032 268.978 255.032 267.873V255.357C255.032 254.252 254.136 253.357 253.032 253.357Z" fill="#B05343"/>
<path d="M251.092 252.327V274.337" stroke="#B05343"/>
<path d="M319.668 357.138H315.893C314.788 357.138 313.893 358.033 313.893 359.138V410.687C313.893 411.792 314.788 412.687 315.893 412.687H319.668C320.773 412.687 321.668 411.792 321.668 410.687V359.138C321.668 358.033 320.773 357.138 319.668 357.138Z" fill="#B05343"/>
<path d="M317.724 387.533V426.313" stroke="#B05343"/>
<path d="M266.351 259.646H262.575C261.471 259.646 260.575 260.541 260.575 261.646V274.162C260.575 275.267 261.471 276.162 262.575 276.162H266.351C267.455 276.162 268.351 275.267 268.351 274.162V261.646C268.351 260.541 267.455 259.646 266.351 259.646Z" fill="#B05343"/>
<path d="M264.411 258.616V280.626" stroke="#B05343"/>
<path d="M386.319 392.755H382.543C381.438 392.755 380.543 393.651 380.543 394.755V407.271C380.543 408.376 381.438 409.271 382.543 409.271H386.319C387.423 409.271 388.319 408.376 388.319 407.271V394.755C388.319 393.651 387.423 392.755 386.319 392.755Z" fill="#E99531"/>
<path d="M384.373 385.436V407.447" stroke="#E99531"/>
<path d="M133.062 266.983H129.286C128.182 266.983 127.286 267.878 127.286 268.983V281.499C127.286 282.604 128.182 283.499 129.286 283.499H133.062C134.166 283.499 135.062 282.604 135.062 281.499V268.983C135.062 267.878 134.166 266.983 133.062 266.983Z" fill="#E99531"/>
<path d="M131.117 259.664V281.674" stroke="#E99531"/>
<path d="M39.7474 350.831H35.9717C34.8671 350.831 33.9717 351.726 33.9717 352.831V365.347C33.9717 366.452 34.8671 367.347 35.9717 367.347H39.7474C40.852 367.347 41.7474 366.452 41.7474 365.347V352.831C41.7474 351.726 40.852 350.831 39.7474 350.831Z" fill="#E99531"/>
<path d="M37.8076 343.513V365.523" stroke="#E99531"/>
<path d="M492.961 296.33H489.186C488.081 296.33 487.186 297.226 487.186 298.33V310.846C487.186 311.951 488.081 312.846 489.186 312.846H492.961C494.066 312.846 494.961 311.951 494.961 310.846V298.33C494.961 297.226 494.066 296.33 492.961 296.33Z" fill="#E99531"/>
<path d="M491.021 289.011V311.022" stroke="#E99531"/>
<path d="M79.7445 306.81H75.9688C74.8642 306.81 73.9688 307.705 73.9688 308.81V321.326C73.9688 322.431 74.8642 323.326 75.9688 323.326H79.7445C80.849 323.326 81.7445 322.431 81.7445 321.326V308.81C81.7445 307.705 80.849 306.81 79.7445 306.81Z" fill="#E99531"/>
<path d="M77.8047 299.492V321.502" stroke="#E99531"/>
<path d="M532.946 252.309H529.17C528.065 252.309 527.17 253.205 527.17 254.309V266.825C527.17 267.93 528.065 268.825 529.17 268.825H532.946C534.05 268.825 534.946 267.93 534.946 266.825V254.309C534.946 253.205 534.05 252.309 532.946 252.309Z" fill="#E99531"/>
<path d="M531.006 244.99V267" stroke="#E99531"/>
<path d="M399.647 352.663H395.871C394.767 352.663 393.871 353.559 393.871 354.663V392.599C393.871 393.703 394.767 394.599 395.871 394.599H399.647C400.751 394.599 401.647 393.703 401.647 392.599V354.663C401.647 353.559 400.751 352.663 399.647 352.663Z" fill="#E99531"/>
<path d="M397.707 334.08V389.965" stroke="#E99531"/>
<path d="M106.384 293.969H102.608C101.504 293.969 100.608 294.864 100.608 295.969V333.905C100.608 335.009 101.504 335.905 102.608 335.905H106.384C107.489 335.905 108.384 335.009 108.384 333.905V295.969C108.384 294.864 107.489 293.969 106.384 293.969Z" fill="#E99531"/>
<path d="M104.444 275.387V331.272" stroke="#E99531"/>
<path d="M559.606 239.466H555.83C554.726 239.466 553.83 240.361 553.83 241.466V279.402C553.83 280.506 554.726 281.402 555.83 281.402H559.606C560.71 281.402 561.606 280.506 561.606 279.402V241.466C561.606 240.361 560.71 239.466 559.606 239.466Z" fill="#E99531"/>
<path d="M557.666 220.884V276.769" stroke="#E99531"/>
<path d="M572.932 258.333H569.156C568.052 258.333 567.156 259.228 567.156 260.333V298.269C567.156 299.373 568.052 300.269 569.156 300.269H572.932C574.037 300.269 574.932 299.373 574.932 298.269V260.333C574.932 259.228 574.037 258.333 572.932 258.333Z" fill="#E99531"/>
<path d="M570.986 239.75V295.635" stroke="#E99531"/>
<path d="M586.266 252.705H582.49C581.386 252.705 580.49 253.601 580.49 254.705V275.21C580.49 276.315 581.386 277.21 582.49 277.21H586.266C587.37 277.21 588.266 276.315 588.266 275.21V254.705C588.266 253.601 587.37 252.705 586.266 252.705Z" fill="#E99531"/>
<path d="M584.326 241.846V274.502" stroke="#E99531"/>
<path d="M599.598 242.224H595.822C594.718 242.224 593.822 243.12 593.822 244.224V264.73C593.822 265.834 594.718 266.73 595.822 266.73H599.598C600.703 266.73 601.598 265.834 601.598 264.73V244.224C601.598 243.12 600.703 242.224 599.598 242.224Z" fill="#E99531"/>
<path d="M597.658 231.365V264.022" stroke="#E99531"/>
<path d="M66.3997 318.074H62.624C61.5195 318.074 60.624 318.969 60.624 320.074V358.01C60.624 359.114 61.5195 360.01 62.624 360.01H66.3997C67.5043 360.01 68.3997 359.114 68.3997 358.01V320.074C68.3997 318.969 67.5043 318.074 66.3997 318.074Z" fill="#E99531"/>
<path d="M64.46 299.492V355.376" stroke="#E99531"/>
<path d="M519.621 263.573H515.846C514.741 263.573 513.846 264.468 513.846 265.573V303.509C513.846 304.613 514.741 305.509 515.846 305.509H519.621C520.726 305.509 521.621 304.613 521.621 303.509V265.573C521.621 264.468 520.726 263.573 519.621 263.573Z" fill="#E99531"/>
<path d="M517.678 244.99V300.875" stroke="#E99531"/>
<path d="M412.979 305.572H409.203C408.099 305.572 407.203 306.467 407.203 307.572V352.771C407.203 353.875 408.099 354.771 409.203 354.771H412.979C414.083 354.771 414.979 353.875 414.979 352.771V307.572C414.979 306.467 414.083 305.572 412.979 305.572Z" fill="#E99531"/>
<path d="M411.039 283.77V349.334" stroke="#E99531"/>
<path d="M119.723 267.84H115.947C114.843 267.84 113.947 268.736 113.947 269.84V315.039C113.947 316.143 114.843 317.039 115.947 317.039H119.723C120.828 317.039 121.723 316.143 121.723 315.039V269.84C121.723 268.736 120.828 267.84 119.723 267.84Z" fill="#E99531"/>
<path d="M117.783 246.039V311.602" stroke="#E99531"/>
<path d="M279.684 269.735H275.908C274.804 269.735 273.908 270.631 273.908 271.735V277.96C273.908 279.064 274.804 279.96 275.908 279.96H279.684C280.788 279.96 281.684 279.064 281.684 277.96V271.735C281.684 270.631 280.788 269.735 279.684 269.735Z" fill="#B05343"/>
<path d="M277.744 269.098V282.723" stroke="#B05343"/>
<path d="M332.994 413.324H329.219C328.114 413.324 327.219 414.219 327.219 415.324V421.548C327.219 422.653 328.114 423.548 329.219 423.548H332.994C334.099 423.548 334.994 422.653 334.994 421.548V415.324C334.994 414.219 334.099 413.324 332.994 413.324Z" fill="#E99531"/>
<path d="M331.055 412.687V426.312" stroke="#E99531"/>
<path d="M159.714 224.189H155.938C154.834 224.189 153.938 225.084 153.938 226.189V258.368C153.938 259.472 154.834 260.368 155.938 260.368H159.714C160.819 260.368 161.714 259.472 161.714 258.368V226.189C161.714 225.084 160.819 224.189 159.714 224.189Z" fill="#E99531"/>
<path d="M157.77 221.933V270.146" stroke="#E99531"/>
<path d="M172.826 213.959H169.051C167.946 213.959 167.051 214.854 167.051 215.959V248.138C167.051 249.242 167.946 250.138 169.051 250.138H172.826C173.931 250.138 174.826 249.242 174.826 248.138V215.959C174.826 214.854 173.931 213.959 172.826 213.959Z" fill="#E99531"/>
<path d="M170.881 211.702V259.915" stroke="#E99531"/>
<path d="M346.333 413.129H342.558C341.453 413.129 340.558 414.024 340.558 415.129V418.207C340.558 419.312 341.453 420.207 342.558 420.207H346.333C347.438 420.207 348.333 419.312 348.333 418.207V415.129C348.333 414.024 347.438 413.129 346.333 413.129Z" fill="#E99531"/>
<path d="M344.395 403.254V420.024" stroke="#E99531"/>
<path d="M359.661 413.129H355.886C354.781 413.129 353.886 414.024 353.886 415.129V418.207C353.886 419.312 354.781 420.207 355.886 420.207H359.661C360.766 420.207 361.661 419.312 361.661 418.207V415.129C361.661 414.024 360.766 413.129 359.661 413.129Z" fill="#E99531"/>
<path d="M357.722 403.254V420.024" stroke="#E99531"/>
<path d="M146.389 265.346H142.613C141.509 265.346 140.613 266.241 140.613 267.346V270.424C140.613 271.529 141.509 272.424 142.613 272.424H146.389C147.494 272.424 148.389 271.529 148.389 270.424V267.346C148.389 266.241 147.494 265.346 146.389 265.346Z" fill="#E99531"/>
<path d="M144.449 255.471V272.241" stroke="#E99531"/>
<path d="M439.631 283.77H435.855C434.751 283.77 433.855 284.665 433.855 285.77V339.416C433.855 340.52 434.751 341.416 435.855 341.416H439.631C440.736 341.416 441.631 340.52 441.631 339.416V285.77C441.631 284.665 440.736 283.77 439.631 283.77Z" fill="#E99531"/>
<path d="M437.691 271.193V352.945" stroke="#E99531"/>
<path d="M-0.245765 331.983H-4.02148C-5.12605 331.983 -6.02148 332.878 -6.02148 333.983V353.041C-6.02148 354.146 -5.12605 355.041 -4.02148 355.041H-0.245765C0.858805 355.041 1.75424 354.146 1.75424 353.041V333.983C1.75424 332.878 0.858805 331.983 -0.245765 331.983Z" fill="#E99531"/>
<path d="M452.963 277.482H449.188C448.083 277.482 447.188 278.377 447.188 279.482V298.54C447.188 299.645 448.083 300.54 449.188 300.54H452.963C454.068 300.54 454.963 299.645 454.963 298.54V279.482C454.963 278.377 454.068 277.482 452.963 277.482Z" fill="#E99531"/>
<path d="M451.025 274.338V311.021" stroke="#E99531"/>
<path d="M13.0824 331.982H9.30664C8.20207 331.982 7.30664 332.877 7.30664 333.982V376.098C7.30664 377.203 8.20207 378.098 9.30664 378.098H13.0824C14.1869 378.098 15.0824 377.203 15.0824 376.098V333.982C15.0824 332.877 14.1869 331.982 13.0824 331.982Z" fill="#E99531"/>
<path d="M11.1426 331.983V387.532" stroke="#E99531"/>
<path d="M466.303 277.482H462.527C461.423 277.482 460.527 278.377 460.527 279.482V321.598C460.527 322.703 461.423 323.598 462.527 323.598H466.303C467.408 323.598 468.303 322.703 468.303 321.598V279.482C468.303 278.377 467.408 277.482 466.303 277.482Z" fill="#E99531"/>
<path d="M464.363 277.482V333.032" stroke="#E99531"/>
<path d="M372.994 407.888H369.219C368.114 407.888 367.219 408.783 367.219 409.888V412.966C367.219 414.071 368.114 414.966 369.219 414.966H372.994C374.099 414.966 374.994 414.071 374.994 412.966V409.888C374.994 408.783 374.099 407.888 372.994 407.888Z" fill="#E99531"/>
<path d="M371.055 404.302V418.975" stroke="#E99531"/>
<path d="M293.017 272.156H289.241C288.137 272.156 287.241 273.051 287.241 274.156V302.402C287.241 303.507 288.137 304.402 289.241 304.402H293.017C294.122 304.402 295.017 303.507 295.017 302.402V274.156C295.017 273.051 294.122 272.156 293.017 272.156Z" fill="#B05343"/>
<path d="M291.071 270.145V317.31" stroke="#B05343"/>
<path d="M186.647 197.658H182.871C181.767 197.658 180.871 198.553 180.871 199.658V224.758C180.871 225.863 181.767 226.758 182.871 226.758H186.647C187.751 226.758 188.647 225.863 188.647 224.758V199.658C188.647 198.553 187.751 197.658 186.647 197.658Z" fill="#B05343"/>
<path d="M184.701 190.603V229.382" stroke="#B05343"/>
<path d="M226.361 261.2H222.585C221.48 261.2 220.585 262.095 220.585 263.2V271.253C220.585 272.358 221.48 273.253 222.585 273.253H226.361C227.465 273.253 228.361 272.358 228.361 271.253V263.2C228.361 262.095 227.465 261.2 226.361 261.2Z" fill="#B05343"/>
<path d="M224.415 253.376V277.482" stroke="#B05343"/>
<path d="M213.028 236.818H209.252C208.147 236.818 207.252 237.714 207.252 238.818V262.593C207.252 263.697 208.147 264.593 209.252 264.593H213.028C214.132 264.593 215.028 263.697 215.028 262.593V238.818C215.028 237.714 214.132 236.818 213.028 236.818Z" fill="#B05343"/>
<path d="M211.088 218.788V274.338" stroke="#B05343"/>
</g>
</g>
</g>
<defs>
<filter id="filter0_f_647_139" x="-36.0215" y="160.603" width="760.93" height="295.71" filterUnits="userSpaceOnUse" color-interpolation-filters="sRGB">
<feFlood flood-opacity="0" result="BackgroundImageFix"/>
<feBlend mode="normal" in="SourceGraphic" in2="BackgroundImageFix" result="shape"/>
<feGaussianBlur stdDeviation="15" result="effect1_foregroundBlur_647_139"/>
</filter>
<clipPath id="clip0_647_139">
<rect width="700" height="450" fill="white"/>
</clipPath>
</defs>
</svg>
