<svg width="80" height="76" viewBox="0 0 80 76" fill="none" xmlns="http://www.w3.org/2000/svg">
<g filter="url(#filter0_d_509_106)">
<path d="M31.2689 67.6889L36.7534 71.7625L31.2689 67.6889ZM31.2689 67.6889C31.0343 67.5165 30.8757 67.2594 30.8268 66.972L31.2689 67.6889ZM42.3035 70.1832L42.3035 22.1097L73.7135 1.91578L67.8254 23.4367L53.8626 32.0711C53.8611 32.0721 53.8595 32.073 53.858 32.074C53.5401 32.2688 53.2675 32.529 53.058 32.837C52.8475 33.1466 52.7056 33.4975 52.6415 33.8662L52.64 33.8751L47.1636 66.572L42.3035 70.1832ZM41.7981 70.5587C41.7984 70.5585 41.7987 70.5583 41.799 70.558L41.7984 70.5584L41.7981 70.5587ZM57.2289 35.8837L65.8316 30.7001L62.5374 43.2461L55.2267 47.6522L57.2289 35.8837ZM26.8043 33.8751L26.8028 33.8662C26.7387 33.4975 26.5968 33.1466 26.3863 32.837C26.1768 32.529 25.9042 32.2688 25.5864 32.074C25.5848 32.073 25.5832 32.0721 25.5817 32.0711L11.6189 23.4367L5.73083 1.91574L37.1408 22.1083L37.1408 70.1817L32.2807 66.572L26.8043 33.8751ZM37.6484 70.5587L37.6478 70.5583L37.6484 70.5587ZM13.6129 30.7002L22.2177 35.8851L24.2177 47.6523L16.9094 43.2477L13.6129 30.7002ZM16.7814 43.1705C16.7828 43.1714 16.7842 43.1722 16.7856 43.1731L16.7814 43.1705ZM24.822 48.0165L24.8207 48.0157L24.822 48.0165Z" stroke="#E99531" stroke-width="3" shape-rendering="crispEdges"/>
</g>
<defs>
<filter id="filter0_d_509_106" x="0" y="0" width="79.4443" height="80" filterUnits="userSpaceOnUse" color-interpolation-filters="sRGB">
<feFlood flood-opacity="0" result="BackgroundImageFix"/>
<feColorMatrix in="SourceAlpha" type="matrix" values="0 0 0 0 0 0 0 0 0 0 0 0 0 0 0 0 0 0 127 0" result="hardAlpha"/>
<feOffset dy="4"/>
<feGaussianBlur stdDeviation="2"/>
<feComposite in2="hardAlpha" operator="out"/>
<feColorMatrix type="matrix" values="0 0 0 0 0 0 0 0 0 0 0 0 0 0 0 0 0 0 0.25 0"/>
<feBlend mode="normal" in2="BackgroundImageFix" result="effect1_dropShadow_509_106"/>
<feBlend mode="normal" in="SourceGraphic" in2="effect1_dropShadow_509_106" result="shape"/>
</filter>
</defs>
</svg>
