<svg width="99" height="100" viewBox="0 0 99 100" fill="none" xmlns="http://www.w3.org/2000/svg">
<g filter="url(#filter0_d_509_84)">
<path d="M93.3902 1.51747L52.3346 27.9127L52.3346 90.1243C52.3347 90.1243 52.3348 90.1243 52.3348 90.1243C52.3362 90.1236 52.3393 90.1219 52.3442 90.1182L52.3446 90.118L59.3043 84.9468L66.3005 43.1757L66.302 43.1667C66.3736 42.7548 66.5321 42.3629 66.7673 42.017L93.3902 1.51747ZM93.3902 1.51747L85.5735 30.0877L67.6661 41.1614L93.3902 1.51747ZM45.6807 91.322C46.6624 92.0519 48.0825 91.3773 48.0825 90.1829L48.0825 27.8665C48.0825 27.3854 47.8343 26.9348 47.4207 26.6666M45.6807 91.322L12.5374 31.3528C12.2267 31.1614 12.0001 30.8591 11.9031 30.5068L4.05232 1.81187M45.6807 91.322L38.7013 86.1382L45.6807 91.322ZM47.4207 26.6666L6.32456 0.247046M47.4207 26.6666L46.6428 27.8665L46.6047 27.9252L46.6096 27.9283L46.6493 27.8665L47.4207 26.6666ZM6.32456 0.247046C5.18292 -0.485601 3.70211 0.531811 4.05232 1.81187M6.32456 0.247046L5.52121 1.49668L5.49915 1.41603C5.49915 1.41603 5.49914 1.41603 5.49914 1.41602C5.49897 1.41538 5.49889 1.41506 5.49888 1.41506C5.49887 1.41506 5.49893 1.4154 5.49903 1.41605L4.05232 1.81187M6.32456 0.247046L5.52163 1.4982L5.49904 1.41606L4.05232 1.81187M31.2559 41.1644C31.2542 41.1634 31.2526 41.1624 31.251 41.1614L13.3436 30.0877L5.5269 1.51748L46.5825 27.911L46.5825 90.1229C46.5809 90.1219 46.5786 90.1204 46.5757 90.1182L46.5751 90.1178L39.6129 84.9468L32.6166 43.1757L32.6151 43.1667C32.5435 42.7548 32.385 42.3628 32.1498 42.017C31.9157 41.6727 31.6111 41.382 31.2559 41.1644ZM5.47491 1.51376C5.4744 1.51433 5.47411 1.51459 5.4741 1.51458C5.47408 1.51456 5.47433 1.51428 5.47491 1.51376ZM71.3654 45.4107L83.3344 38.1986L83.3107 38.2885L83.3107 38.2921L78.8456 55.2977L68.6365 61.4506L71.3654 45.4107ZM20.0748 55.2997L15.6064 38.2919L15.6064 38.2885L15.5827 38.1986L27.5548 45.4126L30.2807 61.4506L20.0748 55.2997ZM27.6096 45.3748L27.6097 45.3748L27.5894 45.3888L27.6096 45.3748Z" stroke="#E99531" stroke-width="3" shape-rendering="crispEdges"/>
</g>
<defs>
<filter id="filter0_d_509_84" x="0" y="0" width="98.9171" height="99.6243" filterUnits="userSpaceOnUse" color-interpolation-filters="sRGB">
<feFlood flood-opacity="0" result="BackgroundImageFix"/>
<feColorMatrix in="SourceAlpha" type="matrix" values="0 0 0 0 0 0 0 0 0 0 0 0 0 0 0 0 0 0 127 0" result="hardAlpha"/>
<feOffset dy="4"/>
<feGaussianBlur stdDeviation="2"/>
<feComposite in2="hardAlpha" operator="out"/>
<feColorMatrix type="matrix" values="0 0 0 0 0 0 0 0 0 0 0 0 0 0 0 0 0 0 0.25 0"/>
<feBlend mode="normal" in2="BackgroundImageFix" result="effect1_dropShadow_509_84"/>
<feBlend mode="normal" in="SourceGraphic" in2="effect1_dropShadow_509_84" result="shape"/>
</filter>
</defs>
</svg>
