<svg width="64" height="65" viewBox="0 0 64 65" fill="none" xmlns="http://www.w3.org/2000/svg">
<g id="014-blockchain" clip-path="url(#clip0_230_1517)">
<path id="Vector" d="M32.0752 64.4998C31.8727 64.4998 31.6709 64.4472 31.4907 64.3407L16.554 55.5223C16.2042 55.3159 15.9893 54.9391 15.9893 54.5328V36.8953C15.9893 36.489 16.2042 36.1123 16.554 35.9059L31.4907 27.0868C31.851 26.8731 32.2987 26.8731 32.659 27.0868L47.5957 35.9059C47.9455 36.1123 48.1605 36.489 48.1605 36.8953V54.5328C48.1605 54.9391 47.9455 55.3159 47.5957 55.5223L32.659 64.3407C32.4789 64.4472 32.277 64.4998 32.0752 64.4998ZM18.2871 53.8767L32.0752 62.0173L45.8627 53.8767V37.5515L32.0752 29.4102L18.2871 37.5515V53.8767ZM32.0752 58.755C31.8773 58.755 31.6794 58.7044 31.5019 58.6025L21.1614 52.6571C20.8051 52.4513 20.5849 52.0713 20.5849 51.6604V39.7677C20.5849 39.3568 20.8051 38.9768 21.1614 38.771L31.5019 32.8244C31.8563 32.6206 32.2935 32.6206 32.6478 32.8244L42.9883 38.771C43.3446 38.9768 43.5649 39.3568 43.5649 39.7677V51.6604C43.5649 52.0713 43.3446 52.4513 42.9883 52.6571L32.6478 58.6025C32.4703 58.705 32.2724 58.755 32.0752 58.755ZM22.8833 50.9964L32.0752 56.281L41.267 50.9964V40.4324L32.0752 35.1465L22.8833 40.4324V50.9964Z" fill="#E99531"/>
<path id="Vector_2" d="M17.138 38.0735C16.9362 38.0735 16.7343 38.0202 16.5542 37.9137L1.61749 29.096C1.26706 28.8895 1.05273 28.5121 1.05273 28.1065V10.469C1.05273 10.0627 1.26706 9.68529 1.61749 9.47885L16.5542 0.659761C16.9145 0.446746 17.3622 0.446746 17.7225 0.659761L32.6592 9.47885C33.0089 9.68595 33.2239 10.0627 33.2239 10.469V28.1065C33.2239 28.5121 33.0089 28.8895 32.6592 29.096L17.7225 37.9137C17.5423 38.0209 17.3405 38.0735 17.138 38.0735ZM3.35054 27.4497L17.138 35.5903L30.9261 27.4497V11.1251L17.138 2.9832L3.35054 11.1251V27.4497ZM17.138 32.3287C16.9408 32.3287 16.7429 32.278 16.5654 32.1761L6.22493 26.2301C5.86859 26.025 5.64834 25.6443 5.64834 25.2341V13.3414C5.64834 12.9305 5.86859 12.5498 6.22493 12.3447L16.5654 6.39802C16.9197 6.19355 17.3563 6.19355 17.7113 6.39802L28.0517 12.3447C28.4081 12.5498 28.6283 12.9305 28.6283 13.3414V25.2341C28.6283 25.6443 28.4081 26.025 28.0517 26.2301L17.7113 32.1761C17.5338 32.278 17.3359 32.3287 17.138 32.3287ZM7.94614 24.5694L17.138 29.8547L26.3299 24.5694V14.0054L17.138 8.71949L7.94614 14.0054V24.5694Z" fill="#E99531"/>
<path id="Vector_3" d="M47.0127 38.0735C46.8108 38.0735 46.6084 38.0202 46.4282 37.9137L31.4915 29.096C31.1417 28.8895 30.9268 28.5121 30.9268 28.1065V10.469C30.9268 10.0627 31.1417 9.68529 31.4915 9.47885L46.4282 0.659761C46.7885 0.446746 47.2362 0.446746 47.5965 0.659761L62.5332 9.47885C62.8836 9.68595 63.098 10.0627 63.098 10.469V28.1065C63.098 28.5121 62.8836 28.8895 62.5332 29.096L47.5965 37.9137C47.4164 38.0209 47.2145 38.0735 47.0127 38.0735ZM33.2246 27.4497L47.0127 35.5903L60.8002 27.4497V11.1251L47.0127 2.9832L33.2246 11.1251V27.4497ZM47.0127 32.3287C46.8148 32.3287 46.6169 32.278 46.4394 32.1761L36.0989 26.2301C35.7426 26.025 35.5224 25.6443 35.5224 25.2341V13.3414C35.5224 12.9305 35.7426 12.5498 36.0989 12.3447L46.4394 6.39802C46.7944 6.19355 47.231 6.19355 47.5853 6.39802L57.9264 12.3447C58.2821 12.5498 58.5024 12.9305 58.5024 13.3414V25.2341C58.5024 25.6443 58.2821 26.025 57.9264 26.2301L47.5853 32.1761C47.4078 32.278 47.2099 32.3287 47.0127 32.3287ZM37.8208 24.5694L47.0127 29.8547L56.2045 24.5694V14.0054L47.0127 8.71949L37.8208 14.0054V24.5694Z" fill="#E99531"/>
</g>
<defs>
<clipPath id="clip0_230_1517">
<rect width="64" height="64" fill="white" transform="translate(0 0.5)"/>
</clipPath>
</defs>
</svg>
