<svg width="64" height="65" viewBox="0 0 64 65" fill="none" xmlns="http://www.w3.org/2000/svg">
<g id="078-network" clip-path="url(#clip0_230_4233)">
<path id="Vector" d="M34.1276 19.7C33.5386 19.7 33.0607 19.2227 33.0607 18.6331V7.96648C33.0582 8.00372 33.0521 7.94329 33.0497 7.89935C33.0253 7.48919 33.2389 7.10161 33.5984 6.90263C33.9585 6.70183 34.3992 6.72868 34.7343 6.96855L38.8407 9.90192C39.3046 10.2309 40.0004 10.1143 40.3288 9.6529C40.6706 9.17316 40.5589 8.50665 40.0804 8.16424L32.6145 2.83095C32.2446 2.56728 31.746 2.56544 31.373 2.83156L23.9072 8.16424C23.4286 8.50665 23.3176 9.17316 23.6588 9.6529C23.9999 10.1308 24.6689 10.2401 25.1505 9.89948L29.2539 6.96855C29.5878 6.72868 30.0303 6.70305 30.3898 6.90263C30.7493 7.10161 30.9629 7.48919 30.9385 7.89935C30.9372 7.92742 30.9281 8.00982 30.9244 8.03851L30.9275 18.6331C30.9275 19.2227 30.4496 19.7 29.8606 19.7C29.2716 19.7 28.7943 19.2227 28.7943 18.6331V9.9184L26.387 11.6372C24.9478 12.6601 22.9446 12.3256 21.9229 10.8913C20.8975 9.45819 21.2314 7.45501 22.6669 6.429L30.134 1.09571C31.2479 0.301634 32.7433 0.301634 33.8535 1.09449L41.3206 6.429C42.7568 7.45501 43.0907 9.45819 42.0646 10.8925C41.0783 12.2756 38.9921 12.629 37.6023 11.6384L35.1939 9.9184V18.6331C35.1939 19.2227 34.7166 19.7 34.1276 19.7Z" fill="#E99531"/>
<path id="Vector_2" d="M31.9936 64.5001C31.3417 64.5001 30.6899 64.3023 30.1345 63.9056L22.6674 58.5711C21.2312 57.5445 20.8973 55.5419 21.9233 54.1075C22.9439 52.6738 24.944 52.3387 26.3844 53.3605L28.7941 55.0811V46.3664C28.7941 45.7768 29.2714 45.3001 29.8604 45.3001C30.4494 45.3001 30.9273 45.7768 30.9273 46.3664V57.033C30.9328 56.997 30.9352 57.0562 30.9383 57.1001C30.9627 57.5103 30.7491 57.8979 30.3896 58.0968C30.0289 58.2958 29.5876 58.2708 29.2537 58.0309L25.1472 55.0975C24.6687 54.76 23.9992 54.8699 23.6598 55.346C23.3174 55.8263 23.4285 56.4928 23.9076 56.8352L31.3735 62.1685C31.7446 62.4346 32.2432 62.4352 32.6149 62.1679L40.0808 56.8352C40.5587 56.4928 40.6704 55.8263 40.3286 55.3466C39.999 54.8858 39.3057 54.7667 38.8394 55.0988L34.7341 58.0309C34.4002 58.2708 33.9583 58.297 33.5976 58.0968C33.2381 57.8979 33.0251 57.5103 33.0495 57.1001C33.0507 57.072 33.0599 56.9896 33.0636 56.961L33.0605 46.3664C33.0605 45.7768 33.5384 45.3001 34.1274 45.3001C34.7164 45.3001 35.1937 45.7768 35.1937 46.3664V55.0811L37.6003 53.3623C38.9932 52.3686 41.0775 52.7239 42.0645 54.1075C43.0905 55.5419 42.7566 57.5451 41.3211 58.5711L33.8534 63.9044C33.2973 64.3011 32.6455 64.5001 31.9936 64.5001Z" fill="#E99531"/>
<path id="Vector_3" d="M16.1993 54.5959C15.7935 54.5959 15.387 54.5177 15 54.3603L6.49224 50.9227C5.22453 50.4094 4.42314 49.1478 4.49577 47.7843L4.98894 38.6204C5.08415 36.8595 6.59905 35.5027 8.35688 35.5979C9.38594 35.6516 10.332 36.2046 10.8862 37.078C11.2445 37.6402 11.4154 38.2926 11.3806 38.9622L11.2219 41.9175L18.5749 37.2416C19.0717 36.9254 19.7315 37.0725 20.047 37.5688C20.3632 38.0662 20.2167 38.726 19.7193 39.0415L10.719 44.7655C10.7415 44.7581 10.7116 44.7801 10.6701 44.81C10.3357 45.0517 9.89559 45.081 9.53304 44.8833C9.17232 44.6861 8.95686 44.2998 8.97883 43.889L9.24983 38.8499C9.26143 38.6265 9.20466 38.4104 9.08626 38.2225C8.9001 37.9307 8.58576 37.7464 8.24335 37.7287C7.6507 37.7012 7.15143 38.1486 7.11908 38.7358L6.6253 47.8972C6.6015 48.3525 6.86944 48.7731 7.29303 48.9452L15.7983 52.3827C16.0626 52.4883 16.3532 52.4853 16.615 52.3754C16.8768 52.2643 17.0801 52.058 17.1869 51.7931C17.4078 51.2493 17.1423 50.6255 16.5955 50.4027L11.9195 48.5131C11.5399 48.3599 11.2817 48.0034 11.2549 47.5951C11.228 47.1874 11.4367 46.7986 11.7926 46.5965C11.8194 46.5819 11.8982 46.5422 11.9269 46.53L20.8649 40.8409C21.3617 40.5253 22.0209 40.6736 22.3371 41.1686C22.6532 41.6661 22.5062 42.3259 22.0093 42.6414L14.6558 47.3186L17.3981 48.427C19.0344 49.0947 19.8261 50.9636 19.1651 52.5951C18.8452 53.3855 18.2355 54.0063 17.4487 54.3395C17.0465 54.5104 16.6229 54.5959 16.1993 54.5959Z" fill="#E99531"/>
<path id="Vector_4" d="M55.8042 29.4058C55.7468 29.4058 55.6888 29.4052 55.6309 29.4016C53.8749 29.3088 52.5174 27.8006 52.6066 26.0385L52.7652 23.0819L45.4123 27.7579C44.9148 28.074 44.2563 27.9269 43.9401 27.4307C43.6239 26.9333 43.771 26.2735 44.2679 25.9579L53.2682 20.234C53.2462 20.2456 53.2767 20.2194 53.3176 20.1895C53.6509 19.949 54.0928 19.9185 54.4541 20.1162C54.8148 20.3134 55.0303 20.6997 55.0089 21.1105L54.7373 26.1496C54.7074 26.7361 55.1591 27.2403 55.7438 27.2708C56.3254 27.3062 56.8375 26.8509 56.8687 26.2637L57.3618 17.1023C57.3856 16.6469 57.1183 16.2258 56.6947 16.0543L48.1888 12.6162C47.9239 12.5093 47.6334 12.513 47.3721 12.6235C47.1103 12.7352 46.907 12.9415 46.8002 13.2058C46.6714 13.525 46.7044 13.8881 46.89 14.1799C47.0084 14.3673 47.1823 14.5113 47.3911 14.5955L52.0676 16.4864C52.4472 16.6396 52.706 16.9955 52.7329 17.4038C52.7591 17.8121 52.5504 18.2009 52.1946 18.4029C52.1677 18.4176 52.089 18.4573 52.0609 18.4695L43.1222 24.158C42.6254 24.4735 41.9656 24.3271 41.65 23.8308C41.3339 23.3328 41.481 22.6736 41.9778 22.358L49.3314 17.6809L46.5897 16.5725C45.9647 16.3198 45.4471 15.8871 45.0888 15.3237C44.5358 14.4527 44.4357 13.362 44.8221 12.4062C45.1425 11.6146 45.7516 10.9932 46.539 10.66C47.3264 10.3267 48.1961 10.3176 48.9884 10.6392L57.4955 14.0767C58.7632 14.5907 59.5646 15.8517 59.492 17.2158L58.9988 26.3791C58.9054 28.082 57.49 29.4058 55.8042 29.4058Z" fill="#E99531"/>
<path id="Vector_5" d="M48.5992 53.8897C47.3821 53.8897 46.2176 53.1939 45.6817 52.0165C45.2538 51.079 45.3063 49.9846 45.8221 49.0892C46.1547 48.5112 46.6546 48.0571 47.2655 47.7788L49.9578 46.552L42.4077 42.1989C41.8975 41.9047 41.7229 41.2516 42.0165 40.7426C42.3107 40.2323 42.9638 40.0547 43.4734 40.3507L52.7142 45.6785C52.6867 45.6578 52.7349 45.681 52.7777 45.7017C53.1451 45.8861 53.3746 46.2639 53.3673 46.6746C53.3593 47.086 53.117 47.4559 52.7429 47.6268L48.1506 49.7191C47.9467 49.8119 47.7807 49.9632 47.6702 50.1549C47.4975 50.454 47.4792 50.8196 47.622 51.1321C47.8655 51.6686 48.5009 51.9042 49.0368 51.6612L57.3859 47.8557C57.8003 47.6671 58.0487 47.2349 58.0054 46.7815L57.1143 37.6481C57.0868 37.3649 56.9501 37.1097 56.7303 36.9285C56.5106 36.7484 56.2329 36.666 55.9491 36.691C55.3644 36.7472 54.9353 37.2721 54.9902 37.8599L55.4803 42.8794C55.52 43.2902 55.3192 43.6876 54.964 43.8994C54.61 44.1105 54.1644 44.0983 53.8214 43.8658C53.7994 43.8511 53.7347 43.8035 53.7146 43.7877L44.5391 38.5014C44.0282 38.2078 43.8537 37.5547 44.1479 37.0451C44.4414 36.5336 45.0933 36.359 45.6048 36.6532L53.1543 41.0063L52.8674 38.0625C52.7014 36.3035 53.9917 34.7379 55.7428 34.5682C56.5955 34.4889 57.4249 34.7391 58.0841 35.2805C58.7451 35.8231 59.1547 36.5909 59.2377 37.4412L60.1282 46.5758C60.2606 47.935 59.5142 49.2296 58.2709 49.7972L49.92 53.6028C49.4921 53.7975 49.0423 53.8897 48.5992 53.8897Z" fill="#E99531"/>
<path id="Vector_6" d="M7.92654 30.4465C7.18923 30.4465 6.47939 30.1938 5.90199 29.7189C5.24098 29.1757 4.83143 28.4085 4.74842 27.5583L3.85791 18.4237C3.72546 17.0644 4.47193 15.7692 5.71522 15.2016L14.0661 11.3967C15.672 10.6673 17.5738 11.3777 18.305 12.983C19.0356 14.5815 18.3264 16.484 16.723 17.2207L14.0283 18.4475L21.5784 22.8005C22.0886 23.0947 22.2632 23.7478 21.9696 24.2569C21.6748 24.7671 21.0217 24.9411 20.5127 24.6487L11.2719 19.3209C11.2994 19.3417 11.2512 19.3185 11.2084 19.2977C10.841 19.1134 10.6115 18.7356 10.6188 18.3248C10.6268 17.9134 10.8691 17.5436 11.2432 17.3733L15.8355 15.2804C16.369 15.0356 16.6076 14.4008 16.3635 13.8674C16.12 13.3321 15.4846 13.0959 14.9493 13.3388L6.59963 17.1438C6.18581 17.3324 5.93678 17.7645 5.98073 18.218L6.87124 27.3514C6.89931 27.6346 7.03603 27.8897 7.25576 28.071C7.47549 28.251 7.74771 28.3292 8.03702 28.3084C8.37943 28.2754 8.68583 28.0771 8.85795 27.7792C8.96964 27.5857 9.01725 27.366 8.99528 27.142L8.50577 22.12C8.46549 21.7092 8.6669 21.3119 9.02213 21.1001C9.37736 20.8907 9.82231 20.9023 10.1647 21.1337C10.1867 21.1483 10.2514 21.1959 10.2715 21.2118L19.447 26.4981C19.9573 26.7917 20.1324 27.4447 19.8383 27.9544C19.5434 28.4647 18.8904 28.6398 18.3813 28.3462L10.8318 23.9932L11.1187 26.9369C11.1834 27.6053 11.0406 28.2651 10.7061 28.8449C10.191 29.7391 9.26994 30.3323 8.24332 30.4312C8.13712 30.4416 8.03214 30.4465 7.92654 30.4465Z" fill="#E99531"/>
<path id="Vector_7" d="M31.9935 47.4333C23.7592 47.4333 17.0605 40.7341 17.0605 32.4997C17.0605 24.2654 23.7592 17.5662 31.9935 17.5662C40.2284 17.5662 46.9271 24.2654 46.9271 32.4997C46.9271 40.7341 40.2284 47.4333 31.9935 47.4333ZM31.9935 19.7C24.936 19.7 19.1937 25.4416 19.1937 32.4997C19.1937 39.5585 24.936 45.3001 31.9935 45.3001C39.0517 45.3001 44.7939 39.5585 44.7939 32.4997C44.7939 25.4416 39.0517 19.7 31.9935 19.7ZM31.9935 41.0331C27.2883 41.0331 23.4601 37.205 23.4601 32.4997C23.4601 27.7945 27.2883 23.9664 31.9935 23.9664C36.6994 23.9664 40.5269 27.7945 40.5269 32.4997C40.5269 37.205 36.6994 41.0331 31.9935 41.0331ZM31.9935 26.0996C28.4644 26.0996 25.5939 28.9707 25.5939 32.4997C25.5939 36.0288 28.4644 38.8999 31.9935 38.8999C35.5226 38.8999 38.3937 36.0288 38.3937 32.4997C38.3937 28.9707 35.5226 26.0996 31.9935 26.0996Z" fill="#E99531"/>
</g>
<defs>
<clipPath id="clip0_230_4233">
<rect width="64" height="64" fill="white" transform="translate(0 0.5)"/>
</clipPath>
</defs>
</svg>
